<svg width="88" height="88" viewBox="0 0 88 88" fill="none" xmlns="http://www.w3.org/2000/svg">
  <path d="M32.9993 36.6667C37.0494 36.6667 40.3327 33.3834 40.3327 29.3333C40.3327 25.2832 37.0494 22 32.9993 22C28.9493 22 25.666 25.2832 25.666 29.3333C25.666 33.3834 28.9493 36.6667 32.9993 36.6667Z" stroke="#0047BA" stroke-width="3" stroke-linecap="round" stroke-linejoin="round" />
  <path d="M47.6673 7.33301H33.0006C14.6673 7.33301 7.33398 14.6663 7.33398 32.9997V54.9997C7.33398 73.333 14.6673 80.6663 33.0006 80.6663H55.0006C73.334 80.6663 80.6673 73.333 80.6673 54.9997V36.6663" stroke="#0047BA" stroke-width="3" stroke-linecap="round" stroke-linejoin="round" />
  <path d="M57.75 18.333H77.9167" stroke="#0047BA" stroke-width="3" stroke-linecap="round" />
  <path d="M67.834 28.4167V8.25" stroke="#0047BA" stroke-width="3" stroke-linecap="round" />
  <path d="M9.78906 69.4837L27.8657 57.347C30.7624 55.4037 34.9424 55.6237 37.5457 57.8604L38.7557 58.9237C41.6157 61.3804 46.2357 61.3804 49.0957 58.9237L64.3491 45.8337C67.2091 43.377 71.8291 43.377 74.6891 45.8337L80.6657 50.967" stroke="#0047BA" stroke-width="3" stroke-linecap="round" stroke-linejoin="round" />
</svg>