<svg width="28" height="28" viewBox="0 0 28 28" fill="none" xmlns="http://www.w3.org/2000/svg">
  <path d="M5.74023 23.66L7.80524 25.2583C8.07357 25.5267 8.66857 25.655 9.0769 25.655H11.6086C12.4136 25.655 13.2769 25.06 13.4752 24.255L15.0736 19.39C15.4119 18.4566 14.8052 17.6516 13.8019 17.6516H11.1302C10.7336 17.6516 10.3952 17.3132 10.4652 16.8466L10.8036 14.7116C10.9319 14.1166 10.5352 13.4399 9.94023 13.2416C9.40357 13.0433 8.73857 13.3116 8.47024 13.7083L5.74023 17.78"  stroke-width="1.5" stroke-miterlimit="10" />
  <path d="M2.33398 23.66V17.1267C2.33398 16.1934 2.73065 15.855 3.66398 15.855H4.32898C5.26232 15.855 5.65898 16.1934 5.65898 17.1267V23.66C5.65898 24.5934 5.26232 24.9317 4.32898 24.9317H3.66398C2.73065 24.9317 2.33398 24.605 2.33398 23.66Z"  stroke-width="1.5" stroke-linecap="round" stroke-linejoin="round" />
  <path d="M22.2596 4.33996L20.1946 2.74164C19.9263 2.4733 19.3313 2.34501 18.923 2.34501H16.3913C15.5863 2.34501 14.723 2.93995 14.5246 3.74495L12.9263 8.61C12.588 9.54334 13.1946 10.3483 14.198 10.3483H16.8696C17.2663 10.3483 17.6046 10.6867 17.5346 11.1534L17.1963 13.2883C17.068 13.8833 17.4646 14.56 18.0596 14.7584C18.5963 14.9567 19.2613 14.6883 19.5296 14.2917L22.2596 10.22"  stroke-width="1.5" stroke-miterlimit="10" />
  <path d="M25.6668 4.33996V10.8733C25.6668 11.8066 25.2701 12.145 24.3368 12.145H23.6718C22.7385 12.145 22.3418 11.8066 22.3418 10.8733V4.33996C22.3418 3.40663 22.7385 3.06834 23.6718 3.06834H24.3368C25.2701 3.06834 25.6668 3.39496 25.6668 4.33996Z"  stroke-width="1.5" stroke-linecap="round" stroke-linejoin="round" />
</svg>