<svg width="32" height="25" viewBox="0 0 32 25" fill="none" xmlns="http://www.w3.org/2000/svg">
  <g clip-path="url(#clip0_299_2448)">
    <path fill-rule="evenodd" clip-rule="evenodd" d="M0 9.2965C0 12.087 1.5712 14.6331 4.0032 16.3191C4.2176 16.4584 4.3264 16.6625 4.3264 16.9379C4.3264 17.0059 4.2912 17.1111 4.2912 17.1792C4.112 17.8691 3.792 19.0045 3.7536 19.0385C3.7184 19.1406 3.6832 19.2117 3.6832 19.3138C3.6832 19.5211 3.8624 19.6912 4.0768 19.6912C4.1472 19.6912 4.2208 19.6572 4.2912 19.6232L6.8288 18.2125C7.008 18.1104 7.2224 18.0392 7.4368 18.0392C7.5456 18.0392 7.6864 18.0392 7.7952 18.0733C8.976 18.4167 10.2624 18.5899 11.584 18.5899C17.9808 18.5899 23.1648 14.4227 23.1648 9.2934C23.1648 4.16409 17.9808 0 11.5808 0C5.1808 0 0 4.16718 0 9.2965Z" fill="#2F2F2F" />
    <path fill-rule="evenodd" clip-rule="evenodd" d="M22.3717 24.0657C23.4757 24.0657 24.5477 23.9265 25.5109 23.6481C25.5813 23.614 25.6901 23.614 25.7957 23.614C25.9749 23.614 26.1509 23.6821 26.2949 23.7532L28.3973 24.9319C28.4677 24.966 28.5029 25 28.5765 25C28.7525 25 28.8965 24.8608 28.8965 24.6906V24.6875C28.8965 24.6195 28.8613 24.5483 28.8613 24.4462C28.8613 24.4122 28.5765 23.4748 28.4325 22.8839C28.3973 22.8159 28.3973 22.7447 28.3973 22.6767C28.3973 22.4694 28.5029 22.2961 28.6821 22.1569C30.7141 20.7338 31.9973 18.6177 31.9973 16.2604C31.9973 11.9602 27.6837 8.45502 22.3685 8.45502C17.0533 8.45502 12.7461 11.923 12.7461 16.2604C12.7461 20.5606 17.0597 24.0657 22.3717 24.0657Z" fill="#DEDEDE" />
    <path fill-rule="evenodd" clip-rule="evenodd" d="M9.21037 6.29565C9.21037 7.1 8.55118 7.73421 7.72238 7.73421C6.89358 7.73421 6.23438 7.09691 6.23438 6.29565C6.23438 5.49438 6.89358 4.85709 7.72238 4.85709C8.55118 4.85709 9.21037 5.49129 9.21037 6.29565ZM16.932 6.29565C16.932 7.1 16.2728 7.73421 15.444 7.73421C14.6152 7.73421 13.9528 7.09691 13.9528 6.29565C13.9528 5.49438 14.612 4.85709 15.4408 4.85709C16.2696 4.85709 16.932 5.49129 16.932 6.29565Z" fill="white" />
    <path fill-rule="evenodd" clip-rule="evenodd" d="M24.3704 13.8504C24.3704 14.5496 24.9496 15.1095 25.6728 15.1095C26.396 15.1095 26.9752 14.5496 26.9752 13.8504C26.9752 13.1512 26.396 12.5913 25.6728 12.5913C24.9496 12.5913 24.3704 13.1512 24.3704 13.8504ZM17.9512 13.8504C17.9512 14.5496 18.5304 15.1095 19.2536 15.1095C19.9768 15.1095 20.556 14.5496 20.556 13.8504C20.556 13.1512 19.9768 12.5913 19.2536 12.5913C18.5304 12.5913 17.9512 13.1512 17.9512 13.8504Z" fill="#858C8C" />
  </g>
  <defs>
    <clipPath id="clip0_299_2448">
      <rect width="32" height="25" fill="white" />
    </clipPath>
  </defs>
</svg>