<svg width="24" height="25" viewBox="0 0 24 25" fill="none" xmlns="http://www.w3.org/2000/svg">
  <path d="M0 12.02C0 6.588 0 3.876 1.68 2.18C3.384 0.5 6.096 0.5 11.52 0.5H12.48C17.912 0.5 20.624 0.5 22.32 2.18C24 3.884 24 6.596 24 12.02V12.98C24 18.412 24 21.124 22.32 22.82C20.616 24.5 17.904 24.5 12.48 24.5H11.52C6.088 24.5 3.376 24.5 1.68 22.82C0 21.116 0 18.404 0 12.98V12.02Z" fill="#2F2F2F" />
  <path d="M12.7688 17.788C7.29683 17.788 4.17683 14.044 4.04883 7.80402H6.80083C6.88883 12.38 8.90483 14.316 10.5048 14.716V7.80402H13.0888V11.748C14.6648 11.58 16.3288 9.78002 16.8888 7.79602H19.4648C19.2548 8.82303 18.8352 9.7957 18.2323 10.6532C17.6294 11.5108 16.8562 12.2348 15.9608 12.78C16.96 13.2773 17.8423 13.9808 18.5498 14.844C19.2572 15.7072 19.7735 16.7106 20.0648 17.788H17.2248C16.6168 15.892 15.0968 14.42 13.0888 14.22V17.788H12.7768H12.7688Z" fill="white" />
</svg>