<svg width="24" height="24" viewBox="0 0 24 24" fill="none" xmlns="http://www.w3.org/2000/svg">
  <path d="M9.63655 15.1333C9.23713 15.0904 8.84727 15.0365 8.47775 14.9734C8.26452 14.9368 8.06216 15.0803 8.02569 15.2935C7.98922 15.5067 8.13256 15.7092 8.3458 15.7456C8.73116 15.8115 9.13728 15.8676 9.55278 15.9122C9.56703 15.9137 9.58114 15.9145 9.59516 15.9145C9.79269 15.9145 9.96252 15.7655 9.98413 15.5646C10.0073 15.3496 9.85161 15.1565 9.63655 15.1333Z" fill="white" />
  <path d="M8.45618 1.71161C7.17246 1.71161 6.16699 2.3905 6.16699 3.25717C6.16699 4.1238 7.17251 4.80269 8.45618 4.80269C9.73986 4.80269 10.7453 4.1238 10.7453 3.25717C10.7453 2.3905 9.73986 1.71161 8.45618 1.71161ZM8.45618 4.01932C7.59434 4.01932 6.95037 3.61699 6.95037 3.25717C6.95037 2.89736 7.59439 2.49499 8.45618 2.49499C9.31803 2.49499 9.96195 2.89745 9.96195 3.25717C9.96195 3.61694 9.31803 4.01932 8.45618 4.01932Z" fill="white" />
  <path d="M15.195 0.222477C14.8136 0.167024 14.418 0.121274 14.019 0.0864929C13.8035 0.0679303 13.6136 0.227212 13.5948 0.44265C13.576 0.658181 13.7355 0.848119 13.951 0.866869C14.3351 0.900338 14.7157 0.944307 15.0823 0.997698C15.1014 1.00051 15.1204 1.00182 15.1391 1.00182C15.3305 1.00182 15.4979 0.861432 15.5263 0.666478C15.5573 0.4524 15.4091 0.253649 15.195 0.222477Z" fill="white" />
  <path d="M16.799 0.531985C16.5889 0.480376 16.3768 0.608673 16.325 0.81858C16.2733 1.02863 16.4016 1.24088 16.6116 1.29258C18.5451 1.76878 19.7945 2.53983 19.7946 3.25712C19.7949 4.28677 17.9702 4.83188 17.2169 5.06664C15.5421 5.58859 13.7468 5.7309 11.9999 5.7309C10.4297 5.7309 8.84242 5.59065 7.31748 5.20506C6.76337 5.06495 6.21422 4.89165 5.6926 4.65652C5.15996 4.41638 4.2052 3.95912 4.2052 3.25721C4.2052 2.68801 5.00353 2.06869 6.34065 1.60074C7.84642 1.07372 9.85628 0.78347 12 0.78347C12.1373 0.78347 12.2756 0.784689 12.4112 0.78708C12.6275 0.79322 12.8059 0.618657 12.8097 0.402376C12.8135 0.186094 12.6413 0.00759376 12.425 0.00379688C12.2849 0.00126563 12.1419 0 12 0C9.77036 0 7.66857 0.305813 6.08185 0.861236C3.88341 1.63083 3.42188 2.58891 3.42188 3.25716V4.82392V11.2166V12.7834V19.176V20.7428C3.42188 21.411 3.88336 22.3692 6.0819 23.1387C7.66866 23.6941 9.7704 24 12 24C14.2296 24 16.3314 23.6941 17.9181 23.1388C20.1167 22.3692 20.5782 21.4111 20.5782 20.7428C20.5782 20.7428 20.5782 19.1766 20.5782 19.1761V12.7834V11.2166V3.25716C20.5781 2.11674 19.2006 1.1235 16.799 0.531985ZM4.20525 4.67757C4.20586 4.77648 4.68258 5.01667 4.76152 5.06232C4.9305 5.16006 5.10469 5.24903 5.28183 5.33096C5.63058 5.49235 5.99143 5.62839 6.35715 5.746C7.1109 5.98843 7.88842 6.15268 8.67099 6.26851C9.77462 6.43187 10.8842 6.51423 12 6.51423C13.92 6.51423 15.9443 6.33709 17.7795 5.73751C18.5045 5.50065 19.2041 5.16568 19.7946 4.67748V4.82387C19.7946 5.39303 18.9964 6.01234 17.6592 6.48034C16.1535 7.00736 14.1437 7.29756 11.9999 7.29756C9.85623 7.29756 7.84637 7.00731 6.34069 6.48034C5.00349 6.01229 4.20525 5.39307 4.20525 4.82387V4.67757ZM4.2052 6.24367C4.61025 6.57878 5.20875 6.91412 6.0819 7.21975C7.66862 7.77517 9.7704 8.08099 12 8.08099C14.2296 8.08099 16.3314 7.77517 17.918 7.21975C18.7912 6.91412 19.3896 6.57878 19.7947 6.24367V11.2166C19.7947 11.7858 18.9964 12.405 17.6593 12.8731C16.1536 13.4001 14.1438 13.6903 12 13.6903C9.85628 13.6903 7.84642 13.4 6.34074 12.8731C5.00353 12.405 4.2053 11.7858 4.2053 11.2166V6.24367H4.2052ZM19.7946 20.7429C19.7946 21.312 18.9963 21.9314 17.6592 22.3994C16.1535 22.9265 14.1437 23.2167 11.9999 23.2167C9.85623 23.2167 7.84637 22.9264 6.34069 22.3994C5.00363 21.9314 4.2053 21.312 4.2053 20.7429V20.5965C4.2053 20.6122 4.29849 20.6701 4.31049 20.6793C4.35352 20.7119 4.39716 20.7437 4.44146 20.7747C4.52986 20.8366 4.62056 20.8952 4.7131 20.9509C4.89825 21.0622 5.09039 21.1618 5.28643 21.2525C5.66846 21.4292 6.06525 21.5745 6.46721 21.6989C6.87474 21.8251 7.29019 21.9342 7.7086 22.0179C8.99476 22.2887 10.4672 22.4333 12 22.4333C12.7664 22.4333 13.5177 22.3972 14.2382 22.3272C14.5657 22.2953 14.8868 22.2565 15.2001 22.211C15.576 22.1562 15.9407 22.0918 16.2914 22.0179C16.8718 21.8957 17.4462 21.7417 18.0047 21.5414C18.4774 21.3718 18.9408 21.1691 19.3672 20.9022C19.5157 20.8093 19.6596 20.7082 19.7946 20.5965V20.7429ZM19.7948 12.7834C19.7948 13.3526 18.9965 13.9719 17.6593 14.4399C16.1536 14.9669 14.1438 15.2571 12.0001 15.2571C11.7299 15.2571 11.4525 15.2521 11.1756 15.2422C10.9592 15.2348 10.7779 15.4036 10.7702 15.6197C10.7624 15.836 10.9314 16.0174 11.1476 16.0251C11.4339 16.0353 11.7206 16.0406 12.0001 16.0406C14.2296 16.0406 16.3314 15.7348 17.9181 15.1793C18.7913 14.8737 19.3897 14.5384 19.7948 14.2032V19.1759C19.7948 19.176 19.7948 19.176 19.7948 19.1762C19.7948 19.7098 19.0932 20.2874 17.9037 20.7432C17.8244 20.7735 17.743 20.8034 17.6594 20.8326C16.9065 21.0962 16.0277 21.3005 15.069 21.4389C14.1104 21.5774 13.072 21.6499 12.0002 21.6499C11.0623 21.6499 10.15 21.5944 9.29439 21.4878C9.04993 21.4573 8.81012 21.4227 8.57556 21.3839C8.34104 21.3452 8.11196 21.3025 7.88884 21.2557C7.33112 21.1389 6.81137 20.9973 6.34088 20.8326C5.00368 20.3646 4.20544 19.7453 4.20544 19.1761V14.1993C4.76728 14.6651 5.6214 15.0688 6.73829 15.3861C6.94637 15.445 7.16298 15.3244 7.22209 15.1164C7.2812 14.9083 7.1604 14.6916 6.95232 14.6325C5.25793 14.1512 4.20535 13.4426 4.20535 12.7834V12.637C4.61039 12.9719 5.20936 13.307 6.08199 13.6125C7.66871 14.1679 9.7705 14.4737 12.0001 14.4737C14.2297 14.4737 16.3315 14.1679 17.9182 13.6125C18.7908 13.307 19.3898 12.9719 19.7949 12.637V12.7834H19.7948Z" fill="white" />
</svg>