<svg width="24" height="24" viewBox="0 0 24 24" fill="none" xmlns="http://www.w3.org/2000/svg">
  <g clip-path="url(#clip0_288_1944)">
    <path d="M20.5714 16.8047C20.5714 16.1272 20.4433 15.5346 20.2114 15.0433C19.8293 14.2264 19.1945 13.8178 18.7288 13.6189C18.4892 13.516 18.2276 13.4367 17.9498 13.3824C17.9498 13.3824 19.759 10.1304 19.7594 10.1289C19.8228 10.0116 19.8248 9.87023 19.7624 9.75142L18.4547 7.26176C18.3735 7.10723 18.2017 7.02285 18.03 7.05275L15.3975 7.51135C15.3975 7.51135 16.7285 5.1071 16.729 5.10622C16.7856 5.00243 16.7938 4.87901 16.751 4.76868C16.751 4.76868 15.0002 0.25606 15.0002 0.255779C14.9668 0.170359 14.9045 0.0967521 14.8205 0.0502253C14.7366 0.00373869 14.6412 -0.0100426 14.5511 0.00699315C14.551 0.00703333 9.80062 0.911975 9.80062 0.911975C9.68431 0.934114 9.58398 1.00652 9.52593 1.10953C9.52536 1.11046 6.45729 6.65072 6.45729 6.65072C6.3358 6.56968 6.20734 6.49716 6.0719 6.43452C5.60623 6.21756 5.07303 6.10747 4.48722 6.10706C4.06374 6.10747 3.63946 6.16733 3.29187 6.27581C2.69 6.46425 2.16447 6.69809 1.7301 6.9709C1.31385 7.23287 0.967912 7.53863 0.703136 7.87974C0.234253 8.48122 -0.00199622 9.2201 1.27044e-05 10.0759C0.00121806 10.9578 0.230235 11.8156 0.484967 12.6899C0.507869 12.7671 0.735319 13.5369 0.80322 13.8113C0.89318 14.1713 0.938582 14.4622 0.937818 14.6764C0.937818 15.4968 1.09411 16.2473 1.40308 16.9075C1.62085 17.3735 1.91616 17.7958 2.28098 18.1622C2.62696 18.5094 3.03317 18.8047 3.48835 19.0405C4.34459 19.4845 5.36954 19.7192 6.4528 19.7196C7.06029 19.7196 7.67145 19.6464 8.2693 19.5018C8.86117 19.3588 9.42689 19.286 9.95081 19.286C10.9119 19.2872 11.5937 19.5243 12.0807 19.7308C12.2848 19.8176 13.309 20.3013 13.5569 20.3568C13.7208 20.3922 14.5959 20.5705 15.743 20.5714C16.3084 20.5714 16.8383 20.5259 17.3185 20.4363C17.5363 20.3958 17.6801 20.1856 17.6395 19.9679C17.6041 19.7774 17.4382 19.6396 17.2449 19.6396C17.2204 19.6396 17.1955 19.642 17.171 19.6464C16.7409 19.7266 15.7361 19.7678 15.7361 19.7678C14.8502 19.7678 14.0579 19.6444 13.7292 19.5717C13.6059 19.5456 12.2631 18.914 11.7625 18.7565C11.1754 18.5721 10.4466 18.4825 9.94957 18.4825C9.36296 18.4825 8.73413 18.5628 8.08042 18.7207C7.54489 18.8501 6.99761 18.916 6.454 18.916H6.44878C5.15901 18.916 3.99018 18.5451 3.15732 17.8718C2.71375 17.5134 2.36861 17.0746 2.13112 16.5672C1.87273 16.0143 1.74175 15.3783 1.74139 14.6764C1.74099 14.3818 1.69358 14.0652 1.58304 13.6176C1.50835 13.3179 1.16037 12.1403 1.08684 11.8626C0.89318 11.1354 0.80318 10.5677 0.803582 10.0759C0.805591 9.38282 0.975144 8.84162 1.33755 8.37273C1.7747 7.80983 2.51281 7.36224 3.53214 7.04242C3.79411 6.96006 4.15005 6.88789 4.48236 6.91064C4.90255 6.9394 5.6966 7.07778 6.09999 7.38153C6.34833 7.56715 6.53958 7.79858 6.68543 8.08827C6.85297 8.42336 6.95225 8.83278 6.97994 9.30528C6.98636 9.41296 7.03458 9.5118 7.11534 9.58291C7.19569 9.65363 7.30136 9.68979 7.40784 9.68256C7.40784 9.68256 9.30233 9.72048 10.5442 10.0809C10.5554 10.0846 11.0538 10.2406 11.2952 10.3347C12.1325 10.6601 12.8674 11.0993 13.4797 11.6393C14.2118 12.2849 14.7799 13.0861 15.1684 14.0202C15.2307 14.1705 15.3766 14.2677 15.5397 14.2677C15.7138 14.2677 16.5237 14.1096 16.9845 14.097C17.5147 14.0824 18.2658 14.183 18.8324 14.5936C19.1156 14.7981 19.329 15.0572 19.4849 15.3859C19.6665 15.7716 19.7678 16.2517 19.7678 16.8126C19.7678 17.0306 19.7176 17.5692 19.6183 17.8673C19.5484 18.0775 19.6625 18.3057 19.8726 18.3756C19.9136 18.3893 19.9566 18.3965 19.9996 18.3965C20.1727 18.3965 20.3258 18.286 20.3809 18.1213C20.5075 17.7409 20.5714 17.1663 20.5714 16.8047ZM10.3828 9.20527C9.98665 9.10639 9.57796 9.02913 9.16392 8.97352L11.0375 4.2965L13.2282 5.51206L10.5093 9.23858C10.4671 9.22753 10.4254 9.21592 10.3828 9.20527ZM14.0511 1.43952L13.5156 4.75236L11.5285 3.64974L14.0511 1.43952ZM14.0511 5.74767L15.6138 5.46192L12.9565 10.2609C12.4567 9.95505 11.9109 9.69702 11.3219 9.48821L14.0511 5.74767ZM18.7417 9.53635H16.6227L15.4521 8.31753L17.8794 7.89469L18.7417 9.53635ZM14.3083 4.88375L14.7864 1.92648L15.826 4.60623L14.3083 4.88375ZM13.2502 1.07285L10.9977 3.04638L10.4285 1.61044L13.2502 1.07285ZM7.40386 7.72831C7.31004 7.53991 7.19734 7.36558 7.06817 7.20643L9.81549 2.2447L10.4016 3.72295L8.33082 8.89224C8.13177 8.88011 7.93562 8.87308 7.74461 8.87219C7.68595 8.44751 7.5714 8.0626 7.40386 7.72831ZM14.0113 11.0362C13.8859 10.9257 13.7562 10.8194 13.6225 10.7169L14.7269 8.72257L15.9564 10.0028L14.8786 11.9497C14.6173 11.6204 14.328 11.3152 14.0113 11.0362ZM15.3901 12.6849L16.6883 10.34H18.7232L17.0786 13.2955C17.0431 13.2949 17.0081 13.2935 16.9722 13.2935C16.4788 13.2939 16.0489 13.3538 15.7752 13.4044C15.659 13.1554 15.5303 12.9157 15.3901 12.6849Z" fill="white" />
    <path d="M4.70102 10.3861C4.80436 10.3861 4.9077 10.3465 4.98625 10.2673C5.14254 10.1098 5.14154 9.85543 4.984 9.69913C4.27967 9.00035 3.5612 8.99886 3.08267 9.12064C2.58912 9.24624 2.26182 9.5246 2.22611 9.55594C2.05936 9.70231 2.04277 9.95616 2.18918 10.1229C2.33551 10.2897 2.5894 10.3063 2.75622 10.1599C2.78977 10.1304 3.58876 9.44689 4.41804 10.2696C4.49643 10.3473 4.59876 10.3861 4.70102 10.3861Z" fill="white" />
    <path d="M15.02 16.0031C14.219 15.8066 13.5193 16.2321 13.4898 16.2503C13.3013 16.3672 13.2419 16.6155 13.3588 16.8041C13.4757 16.9928 13.7221 17.0516 13.9108 16.9348C13.9153 16.9321 14.365 16.6664 14.8349 16.785C15.1328 16.8602 15.3922 17.0811 15.6059 17.4415C15.6809 17.5681 15.8146 17.6385 15.9519 17.6385C16.0215 17.6385 16.0921 17.6203 16.1564 17.5822C16.3473 17.4691 16.4102 17.2226 16.2971 17.0317C15.9678 16.4762 15.5381 16.1301 15.02 16.0031Z" fill="white" />
    <path d="M4.70922 15.0062C4.71372 15.0035 5.16336 14.7379 5.63328 14.8564C5.93117 14.9316 6.19056 15.1525 6.40427 15.5129C6.47932 15.6395 6.613 15.7099 6.75025 15.7099C6.81988 15.7099 6.89047 15.6917 6.95475 15.6537C7.14564 15.5405 7.2086 15.294 7.09546 15.1031C6.76616 14.5476 6.33645 14.2015 5.81839 14.0744C5.01735 13.878 4.31764 14.3035 4.28819 14.3217C4.09959 14.4385 4.04029 14.6869 4.15713 14.8755C4.27405 15.0642 4.5205 15.123 4.70922 15.0062Z" fill="white" />
    <path d="M10.1577 12.3468C9.35666 12.1502 8.657 12.5758 8.62755 12.594C8.43895 12.7109 8.37964 12.9592 8.49648 13.1478C8.61332 13.3365 8.85982 13.3953 9.04853 13.2785C9.05303 13.2758 9.50267 13.0101 9.9726 13.1287C10.2705 13.2039 10.5299 13.4247 10.7436 13.7852C10.8186 13.9118 10.9523 13.9821 11.0896 13.9821C11.1592 13.9821 11.2298 13.964 11.2941 13.9259C11.485 13.8128 11.5479 13.5663 11.4348 13.3754C11.1055 12.8199 10.6758 12.4738 10.1577 12.3468Z" fill="white" />
    <path d="M18.9223 19.803C19.1442 19.803 19.3241 19.6231 19.3241 19.4012C19.3241 19.1793 19.1442 18.9995 18.9223 18.9995C18.7004 18.9995 18.5205 19.1793 18.5205 19.4012C18.5205 19.6231 18.7004 19.803 18.9223 19.803Z" fill="white" />
  </g>
  <defs>
    <clipPath id="clip0_288_1944">
      <rect width="24" height="24" fill="white" />
    </clipPath>
  </defs>
</svg>