<svg width="24" height="24" viewBox="0 0 24 24" fill="none" xmlns="http://www.w3.org/2000/svg">
  <path d="M17.8712 8.68275H15.968V7.97968H17.8712V8.68275ZM15.265 8.68275H14.5619V7.97968H15.265V8.68275ZM13.8588 8.68275H13.1558V7.97968H13.8588V8.68275Z" fill="white" />
  <path d="M21.111 11.6485H19.7584C20.3717 11.1183 20.7604 10.335 20.7604 9.46255C20.7604 7.86953 19.4644 6.57349 17.8714 6.57349H8.52394V7.27656H17.8714C19.0768 7.27656 20.0574 8.2572 20.0574 9.46255C20.0574 10.6679 19.0768 11.6485 17.8714 11.6485H8.06732C8.68068 11.1183 9.06939 10.335 9.06939 9.46255C9.06939 7.86953 7.77339 6.57349 6.18037 6.57349C4.58735 6.57349 3.29136 7.86948 3.29136 9.46255C3.29136 10.335 3.68006 11.1183 4.29342 11.6485H2.88901C1.296 11.6485 0 12.9445 0 14.5375C0 16.1305 1.296 17.4265 2.88901 17.4265C4.48203 17.4265 5.77803 16.1305 5.77803 14.5375C5.77803 13.665 5.38932 12.8817 4.77596 12.3515H7.53299C6.19715 13.5062 6.19668 15.5683 7.53299 16.7234H5.23259V17.4265H9.41994C11.013 17.4265 12.309 16.1305 12.309 14.5374C12.309 13.665 11.9202 12.8816 11.3069 12.3515H21.1109C22.3163 12.3515 23.2969 13.3321 23.2969 14.5374C23.2969 15.7428 22.3163 16.7234 21.1109 16.7234H11.7636V17.4265H21.111C22.704 17.4265 24 16.1305 24 14.5374C24 12.9445 22.704 11.6485 21.111 11.6485ZM5.07496 14.5375C5.07496 15.7428 4.09436 16.7234 2.88901 16.7234C1.68367 16.7234 0.703071 15.7428 0.703071 14.5375C0.703071 13.3321 1.68367 12.3515 2.88901 12.3515C4.09436 12.3516 5.07496 13.3321 5.07496 14.5375ZM3.99443 9.46255C3.99443 8.2572 4.97503 7.27656 6.18037 7.27656C7.38572 7.27656 8.36632 8.2572 8.36632 9.46255C8.36632 10.6679 7.38572 11.6485 6.18037 11.6485C4.97503 11.6485 3.99443 10.6679 3.99443 9.46255ZM11.6059 14.5375C11.6059 15.7428 10.6253 16.7234 9.41999 16.7234C8.21464 16.7234 7.23404 15.7428 7.23404 14.5375C7.23404 13.3321 8.21464 12.3515 9.41999 12.3515C10.6253 12.3515 11.6059 13.3321 11.6059 14.5375Z" fill="white" />
</svg>