<svg width="35" height="40" viewBox="0 0 35 40" fill="none" xmlns="http://www.w3.org/2000/svg">
  <path d="M21.5162 20.6167H29.3329C29.1996 28.4 27.6662 29.6833 22.8829 32.5167C22.3329 32.85 22.1496 33.55 22.4829 34.1167C22.8162 34.6667 23.5162 34.85 24.0829 34.5167C29.7162 31.1833 31.6829 29.15 31.6829 19.45V10.4667C31.6829 7.61665 29.3662 5.31665 26.5329 5.31665H21.5329C18.5996 5.31665 16.3829 7.53332 16.3829 10.4667V15.4667C16.3662 18.4 18.5829 20.6167 21.5162 20.6167Z" fill="#0047BA" />
  <path d="M3.48398 20.6167H11.3007C11.1673 28.4 9.63398 29.6833 4.85065 32.5167C4.30065 32.85 4.11732 33.55 4.45065 34.1167C4.78398 34.6667 5.48398 34.85 6.05065 34.5167C11.684 31.1833 13.6507 29.15 13.6507 19.45V10.4667C13.6507 7.61665 11.334 5.31665 8.50065 5.31665H3.50065C0.550651 5.31665 -1.66602 7.53332 -1.66602 10.4667V15.4667C-1.66602 18.4 0.550651 20.6167 3.48398 20.6167Z" fill="#0047BA" />
</svg>