<svg width="18" height="16" viewBox="0 0 18 16" fill="none" xmlns="http://www.w3.org/2000/svg">
  <path class="soc-tg-char" d="M1.23741 6.96334C6.06923 4.85819 9.29121 3.47034 10.9033 2.7998C15.5063 0.885282 16.4627 0.552709 17.0861 0.54161C17.2232 0.539312 17.5298 0.573292 17.7284 0.734429C17.8961 0.87049 17.9422 1.05429 17.9643 1.18329C17.9864 1.31229 18.0139 1.60616 17.992 1.83578C17.7426 4.45661 16.6633 10.8167 16.1142 13.7521C15.8818 14.9941 15.4244 15.4106 14.9815 15.4513C14.0189 15.5399 13.288 14.8152 12.3558 14.2041C10.897 13.2479 10.0729 12.6526 8.65691 11.7195C7.02048 10.6411 8.08131 10.0484 9.0139 9.07979C9.25797 8.8263 13.4988 4.9689 13.5809 4.61897C13.5912 4.57521 13.6007 4.41207 13.5038 4.32593C13.4069 4.23979 13.2639 4.26925 13.1606 4.29268C13.0143 4.32589 10.6839 5.86621 6.16938 8.91364C5.5079 9.36786 4.90875 9.58918 4.37193 9.57758C3.78013 9.56479 2.64175 9.24297 1.79548 8.96788C0.757494 8.63047 -0.0674757 8.45208 0.00436067 7.87906C0.0417775 7.58059 0.452793 7.27535 1.23741 6.96334Z" />
</svg>