<svg width="18" height="18" viewBox="0 0 18 18" fill="none" xmlns="http://www.w3.org/2000/svg">
  <rect class="soc-max-tile" width="18" height="18" rx="6" />
  <path class="soc-max-char" clip-rule="evenodd" d="M9.12892 14.9658C7.95127 14.9658 7.404 14.7931 6.45271 14.1024C5.85099 14.8794 3.94556 15.4866 3.86246 14.4478C3.86246 13.6679 3.69054 13.0089 3.4957 12.2894C3.26361 11.4031 3 10.416 3 8.98576C3 5.56985 5.79082 3 9.0974 3C12.4068 3 15 5.69647 15 9.01741C15.0111 12.287 12.3843 14.9483 9.12892 14.9658ZM9.17763 5.95259C7.56732 5.86913 6.31231 6.98859 6.03437 8.74402C5.80515 10.1973 6.21202 11.9671 6.55873 12.0592C6.72492 12.0995 7.14325 11.7599 7.404 11.498C7.83515 11.7972 8.33723 11.9769 8.85958 12.0189C10.5281 12.0995 11.9538 10.8237 12.0659 9.14979C12.1311 7.47229 10.8464 6.05146 9.17763 5.95547L9.17763 5.95259Z" />
</svg>