<svg width="24" height="20" viewBox="0 0 24 20" xmlns="http://www.w3.org/2000/svg">
  <g clip-path="url(#clip0_365_10265)">
    <path id="soc-wechat-char-1" clip-rule="evenodd" d="M0.5 7.56534C0.5 9.68611 1.6293 11.6211 3.3773 12.9025C3.5314 13.0084 3.6096 13.1635 3.6096 13.3728C3.6096 13.4245 3.5843 13.5045 3.5843 13.5562C3.4555 14.0805 3.2255 14.9434 3.1979 14.9692C3.1726 15.0468 3.1473 15.1009 3.1473 15.1785C3.1473 15.336 3.2761 15.4653 3.4302 15.4653C3.4808 15.4653 3.5337 15.4395 3.5843 15.4136L5.4082 14.3415C5.537 14.2639 5.6911 14.2098 5.8452 14.2098C5.9234 14.2098 6.0246 14.2098 6.1028 14.2357C6.9515 14.4967 7.8761 14.6283 8.826 14.6283C13.4237 14.6283 17.1497 11.4613 17.1497 7.56299C17.1497 3.66471 13.4237 0.5 8.8237 0.5C4.2237 0.5 0.5 3.66706 0.5 7.56534Z" />
    <path id="soc-wechat-char-2" clip-rule="evenodd" d="M16.5793 18.7899C17.3728 18.7899 18.1433 18.6841 18.8356 18.4725C18.8862 18.4466 18.9644 18.4466 19.0403 18.4466C19.1691 18.4466 19.2956 18.4984 19.3991 18.5524L20.9102 19.4482C20.9608 19.4741 20.9861 19.5 21.039 19.5C21.1655 19.5 21.269 19.3942 21.269 19.2648V19.2625C21.269 19.2108 21.2437 19.1567 21.2437 19.0791C21.2437 19.0532 21.039 18.3408 20.9355 17.8918C20.9102 17.84 20.9102 17.7859 20.9102 17.7342C20.9102 17.5767 20.9861 17.445 21.1149 17.3392C22.5754 16.2577 23.4977 14.6495 23.4977 12.8578C23.4977 9.58968 20.3973 6.92578 16.577 6.92578C12.7567 6.92578 9.66089 9.56147 9.66089 12.8578C9.66089 16.126 12.7613 18.7899 16.5793 18.7899Z"  />
    <path class="soc-wechat-eye-1" clip-rule="evenodd" d="M7.11947 5.28471C7.11947 5.89602 6.64567 6.37802 6.04997 6.37802C5.45427 6.37802 4.98047 5.89367 4.98047 5.28471C4.98047 4.67575 5.45427 4.19141 6.04997 4.19141C6.64567 4.19141 7.11947 4.6734 7.11947 5.28471ZM12.6694 5.28471C12.6694 5.89602 12.1956 6.37802 11.5999 6.37802C11.0042 6.37802 10.5281 5.89367 10.5281 5.28471C10.5281 4.67575 11.0019 4.19141 11.5976 4.19141C12.1933 4.19141 12.6694 4.6734 12.6694 5.28471Z" />
    <path class="soc-wechat-eye-2"  clip-rule="evenodd" d="M18.0169 11.0263C18.0169 11.5576 18.4332 11.9832 18.953 11.9832C19.4728 11.9832 19.8891 11.5576 19.8891 11.0263C19.8891 10.4949 19.4728 10.0693 18.953 10.0693C18.4332 10.0693 18.0169 10.4949 18.0169 11.0263ZM13.4031 11.0263C13.4031 11.5576 13.8194 11.9832 14.3392 11.9832C14.859 11.9832 15.2753 11.5576 15.2753 11.0263C15.2753 10.4949 14.859 10.0693 14.3392 10.0693C13.8194 10.0693 13.4031 10.4949 13.4031 11.0263Z"/>
  </g>
  <defs>
    <clipPath id="clip0_365_10265">
      <rect width="23" height="19" fill="white" transform="translate(0.5 0.5)" />
    </clipPath>
  </defs>
</svg>