<svg width="24" height="24" viewBox="0 0 24 24" fill="none" xmlns="http://www.w3.org/2000/svg">
  <path d="M14.0183 2.09496L16.0717 6.20162C16.3517 6.77329 17.0983 7.32162 17.7283 7.42662L21.45 8.04496C23.83 8.44162 24.39 10.1683 22.675 11.8716L19.7817 14.765C19.2917 15.255 19.0233 16.2 19.175 16.8766L20.0033 20.4583C20.6567 23.2933 19.1517 24.39 16.6433 22.9083L13.155 20.8433C12.525 20.47 11.4867 20.47 10.845 20.8433L7.35668 22.9083C4.86002 24.39 3.34335 23.2816 3.99668 20.4583L4.82502 16.8766C4.97668 16.2 4.70835 15.255 4.21835 14.765L1.32502 11.8716C-0.378317 10.1683 0.170016 8.44162 2.55002 8.04496L6.27168 7.42662C6.89002 7.32162 7.63668 6.77329 7.91668 6.20162L9.97002 2.09496C11.09 -0.133377 12.91 -0.133377 14.0183 2.09496Z" fill="#E1251B" />
</svg>