<svg width="26" height="26" viewBox="0 0 26 26" xmlns="http://www.w3.org/2000/svg">
  <path d="M15.0183 3.09496L17.0717 7.20162C17.3517 7.77329 18.0983 8.32162 18.7283 8.42662L22.45 9.04496C24.83 9.44162 25.39 11.1683 23.675 12.8716L20.7817 15.765C20.2917 16.255 20.0233 17.2 20.175 17.8766L21.0033 21.4583C21.6567 24.2933 20.1517 25.39 17.6433 23.9083L14.155 21.8433C13.525 21.47 12.4867 21.47 11.845 21.8433L8.35665 23.9083C5.85999 25.39 4.34332 24.2816 4.99665 21.4583L5.82499 17.8766C5.97665 17.2 5.70832 16.255 5.21832 15.765L2.32499 12.8716C0.621652 11.1683 1.16999 9.44162 3.54999 9.04496L7.27165 8.42662C7.88999 8.32162 8.63665 7.77329 8.91665 7.20162L10.97 3.09496C12.09 0.866623 13.91 0.866623 15.0183 3.09496Z" stroke-linecap="round" stroke-linejoin="round" />
</svg>