<svg width="24" height="24" viewBox="0 0 24 24" fill="none" xmlns="http://www.w3.org/2000/svg">
  <g clip-path="url(#clip0_288_1974)">
    <path d="M2.88464 14.7344C2.77308 14.9172 2.83086 15.1558 3.01367 15.2673C3.19648 15.3789 3.43504 15.3211 3.54661 15.1383C3.54941 15.1355 4.3376 13.9125 2.95196 10.0193C1.7234 6.56362 3.83271 4.97042 3.83271 4.97042C3.94302 4.84868 3.96447 4.67057 3.88622 4.52612C3.7844 4.33819 3.54941 4.26834 3.36148 4.37016H3.35868C3.35307 4.37577 0.803383 6.30276 2.21987 10.2745C3.4821 13.82 2.88464 14.7344 2.88464 14.7344Z" fill="white" />
    <path d="M22.659 15.7498H3.26849C2.91241 15.7499 2.57105 15.8922 2.32043 16.1453C2.06917 16.3957 1.92787 16.7358 1.92773 17.0905V18.3275C1.92773 18.6713 2.06034 19.0019 2.29799 19.2503L2.32043 19.2756C2.57027 19.5303 2.91164 19.6748 3.26849 19.6767H22.659C23.0024 19.6774 23.3329 19.5458 23.5818 19.3092L23.6071 19.284C23.8587 19.0327 24 18.6916 23.9998 18.3359V17.0905C23.9982 16.3506 23.3989 15.7513 22.659 15.7498ZM3.30496 18.8997L3.26849 18.8941C3.11899 18.8942 2.97559 18.8346 2.87019 18.7286L2.85336 18.7146C2.75547 18.6116 2.70035 18.4752 2.69909 18.3331V17.0877C2.69909 16.7779 2.95027 16.5267 3.26008 16.5267H3.30496V18.8997ZM17.4278 18.9025H4.09034V16.5267H17.4278V18.9025ZM23.2228 18.3387C23.2229 18.4882 23.1633 18.6316 23.0573 18.737L23.0433 18.7538C22.9387 18.8503 22.8013 18.9035 22.659 18.9025H18.2048V16.5267L22.6618 16.5295C22.9716 16.5295 23.2228 16.7807 23.2228 17.0905V18.3387Z" fill="white" />
    <path d="M2.47774 14.078C2.47774 14.0752 2.63762 13.1047 1.40065 10.2998C0.278675 7.77535 0.982714 6.37288 0.982714 6.37288C1.071 6.17766 0.984326 5.94786 0.789173 5.85958C0.59402 5.77129 0.364155 5.85796 0.27587 6.05312L0.28709 6.0419C0.284285 6.04751 -0.574025 7.77535 0.691 10.6111C1.84102 13.2057 1.712 13.9771 1.712 13.9771C1.70856 13.9942 1.70625 14.0116 1.70512 14.0292C1.69166 14.2425 1.85365 14.4264 2.06703 14.4399C2.28035 14.4534 2.46428 14.2914 2.47774 14.078Z" fill="white" />
  </g>
  <defs>
    <clipPath id="clip0_288_1974">
      <rect width="24" height="24" fill="white" />
    </clipPath>
  </defs>
</svg>