<svg width="24" height="24" viewBox="0 0 24 24" fill="none" xmlns="http://www.w3.org/2000/svg">
  <g clip-path="url(#clip0_288_2015)">
    <path d="M20.6248 17.625C19.9585 17.6241 19.3114 17.8474 18.7873 18.2587L17.9248 17.3925C18.6632 16.6202 19.1664 15.6535 19.3755 14.6056C19.5845 13.5578 19.4908 12.472 19.1052 11.4755C18.7197 10.4789 18.0582 9.61283 17.1984 8.97852C16.3385 8.3442 15.3157 7.96793 14.2498 7.89372V6.34872C15.0069 6.25333 15.6993 5.87299 16.1859 5.28511C16.6724 4.69723 16.9167 3.94601 16.8689 3.18438C16.8211 2.42276 16.4849 1.70796 15.9286 1.18552C15.3724 0.663076 14.6379 0.372253 13.8748 0.372253C13.1117 0.372253 12.3772 0.663076 11.821 1.18552C11.2647 1.70796 10.9285 2.42276 10.8807 3.18438C10.8329 3.94601 11.0771 4.69723 11.5637 5.28511C12.0503 5.87299 12.7426 6.25333 13.4998 6.34872V7.89372C12.1427 7.98582 10.865 8.56653 9.90316 9.52834C8.94135 10.4901 8.36063 11.7679 8.26854 13.125H6.34854C6.25315 12.3678 5.8728 11.6755 5.28492 11.1889C4.69705 10.7023 3.94583 10.4581 3.1842 10.5059C2.42257 10.5537 1.70778 10.8899 1.18534 11.4461C0.662893 12.0024 0.37207 12.7368 0.37207 13.5C0.37207 14.2631 0.662893 14.9975 1.18534 15.5538C1.70778 16.1101 2.42257 16.4463 3.1842 16.4941C3.94583 16.5419 4.69705 16.2976 5.28492 15.811C5.8728 15.3244 6.25315 14.6321 6.34854 13.875H8.26854C8.33916 14.8965 8.68727 15.8793 9.27535 16.7176C9.86342 17.5558 10.6691 18.2176 11.6057 18.6317C12.5422 19.0457 13.5739 19.1963 14.5897 19.0671C15.6055 18.9379 16.5667 18.534 17.3698 17.8987L18.2585 18.7875C17.8472 19.3116 17.624 19.9587 17.6248 20.625C17.6248 21.2183 17.8007 21.7983 18.1304 22.2917C18.46 22.785 18.9286 23.1695 19.4767 23.3966C20.0249 23.6237 20.6281 23.6831 21.2101 23.5673C21.792 23.4516 22.3266 23.1659 22.7461 22.7463C23.1657 22.3267 23.4514 21.7922 23.5671 21.2102C23.6829 20.6283 23.6235 20.0251 23.3964 19.4769C23.1694 18.9287 22.7848 18.4602 22.2915 18.1306C21.7982 17.8009 21.2181 17.625 20.6248 17.625ZM11.6248 3.37497C11.6248 2.92997 11.7568 2.49495 12.004 2.12494C12.2512 1.75493 12.6026 1.46654 13.0138 1.29624C13.4249 1.12595 13.8773 1.08139 14.3137 1.16821C14.7502 1.25502 15.1511 1.46932 15.4658 1.78398C15.7804 2.09865 15.9947 2.49956 16.0816 2.93602C16.1684 3.37248 16.1238 3.82488 15.9535 4.23601C15.7832 4.64714 15.4948 4.99855 15.1248 5.24578C14.7548 5.49301 14.3198 5.62497 13.8748 5.62497C13.2781 5.62497 12.7058 5.38792 12.2838 4.96596C11.8618 4.54401 11.6248 3.97171 11.6248 3.37497ZM3.37479 15.75C2.92978 15.75 2.49477 15.618 2.12476 15.3708C1.75475 15.1235 1.46636 14.7721 1.29606 14.361C1.12576 13.9499 1.08121 13.4975 1.16802 13.061C1.25484 12.6246 1.46913 12.2237 1.7838 11.909C2.09847 11.5943 2.49938 11.38 2.93584 11.2932C3.37229 11.2064 3.82469 11.2509 4.23583 11.4212C4.64696 11.5915 4.99836 11.8799 5.2456 12.2499C5.49283 12.62 5.62479 13.055 5.62479 13.5C5.62479 14.0967 5.38774 14.669 4.96578 15.091C4.54382 15.5129 3.97153 15.75 3.37479 15.75ZM9.01854 13.875H11.2498V13.125H9.01854C9.1155 11.8683 9.69543 10.698 10.6367 9.85961C11.5779 9.02127 12.8072 8.58007 14.0667 8.62859C15.3262 8.6771 16.518 9.21156 17.392 10.1198C18.2659 11.0281 18.7541 12.2395 18.7541 13.5C18.7541 14.7604 18.2659 15.9719 17.392 16.8801C16.518 17.7884 15.3262 18.3228 14.0667 18.3714C12.8072 18.4199 11.5779 17.9787 10.6367 17.1403C9.69543 16.302 9.1155 15.1317 9.01854 13.875ZM20.6248 22.875C20.1798 22.875 19.7448 22.743 19.3748 22.4958C19.0047 22.2485 18.7164 21.8971 18.5461 21.486C18.3758 21.0749 18.3312 20.6225 18.418 20.186C18.5048 19.7496 18.7191 19.3487 19.0338 19.034C19.3485 18.7193 19.7494 18.505 20.1858 18.4182C20.6223 18.3314 21.0747 18.3759 21.4858 18.5462C21.897 18.7165 22.2484 19.0049 22.4956 19.3749C22.7428 19.745 22.8748 20.18 22.8748 20.625C22.8748 21.2217 22.6377 21.794 22.2158 22.216C21.7938 22.6379 21.2215 22.875 20.6248 22.875Z" fill="white" />
    <path d="M13.875 9.375V10.125C14.7701 10.125 15.6285 10.4806 16.2615 11.1135C16.8944 11.7465 17.25 12.6049 17.25 13.5H18C18 12.406 17.5654 11.3568 16.7918 10.5832C16.0182 9.8096 14.969 9.375 13.875 9.375Z" fill="white" />
  </g>
  <defs>
    <clipPath id="clip0_288_2015">
      <rect width="24" height="24" fill="white" />
    </clipPath>
  </defs>
</svg>