<svg width="24" height="21" viewBox="0 0 24 21" fill="none" xmlns="http://www.w3.org/2000/svg">
  <path d="M1.64988 9.10995C8.09231 6.28751 12.3883 4.42678 14.5378 3.52777C20.675 0.960914 21.9503 0.515023 22.7815 0.500143C22.9643 0.497061 23.3731 0.542619 23.6379 0.758661C23.8614 0.941082 23.9229 1.18751 23.9524 1.36046C23.9818 1.53342 24.0185 1.92741 23.9893 2.23527C23.6568 5.7491 22.2177 14.2763 21.4856 18.2118C21.1758 19.8771 20.5658 20.4354 19.9753 20.4901C18.6919 20.6088 17.7174 19.6373 16.4744 18.8179C14.5294 17.5359 13.4305 16.7378 11.5425 15.4867C9.36064 14.0409 10.7751 13.2462 12.0185 11.9476C12.344 11.6077 17.9985 6.43594 18.1079 5.96679C18.1216 5.90811 18.1343 5.68939 18.0051 5.5739C17.8759 5.45841 17.6851 5.49791 17.5475 5.52932C17.3524 5.57384 14.2452 7.63899 8.22584 11.7248C7.34386 12.3338 6.545 12.6305 5.82924 12.6149C5.04017 12.5978 3.52233 12.1663 2.39397 11.7975C1.00999 11.3451 -0.0899676 11.106 0.00581422 10.3377C0.0557033 9.93752 0.603724 9.52828 1.64988 9.10995Z" fill="#2F2F2F" />
</svg>