<svg width="24" height="25" viewBox="0 0 24 25" fill="none" xmlns="http://www.w3.org/2000/svg">
  <rect y="0.5" width="24" height="24" rx="6" fill="#2F2F2F" />
  <path fill-rule="evenodd" clip-rule="evenodd" d="M12.3687 21.7119C10.5686 21.7119 9.732 21.4491 8.27785 20.3979C7.35806 21.5805 4.44539 22.5047 4.31837 20.9235C4.31837 19.7365 4.05557 18.7335 3.75773 17.6385C3.40296 16.2895 3 14.7872 3 12.6103C3 7.41131 7.26608 3.5 12.3206 3.5C17.3794 3.5 21.3433 7.60402 21.3433 12.6585C21.3603 17.6348 17.345 21.6853 12.3687 21.7119ZM12.4432 7.99384C9.98166 7.86682 8.06324 9.57063 7.63838 12.2424C7.28798 14.4543 7.90994 17.148 8.43991 17.2881C8.69395 17.3494 9.33342 16.8326 9.732 16.434C10.3911 16.8893 11.1585 17.1628 11.957 17.2268C14.5076 17.3495 16.6869 15.4077 16.8582 12.86C16.9579 10.3068 14.9941 8.14433 12.4432 7.99822L12.4432 7.99384Z" fill="white" />
</svg>
