<svg width="24" height="24" viewBox="0 0 24 24" fill="none" xmlns="http://www.w3.org/2000/svg">
  <path d="M17.4902 8.40234H17.4071C17.2407 5.84326 15.2781 3.73224 12.7432 3.38013L13.142 0.705139H16.0589C16.2535 0.705139 16.4114 0.547302 16.4114 0.352661C16.4114 0.157837 16.2535 0 16.0589 0H12.8383C12.6636 0 12.5153 0.127808 12.4894 0.300659L12.0379 3.32904C12.0225 3.32886 12.0075 3.32831 11.9921 3.32831C9.11829 3.32831 6.75934 5.57391 6.57697 8.40234H6.49365C6.16974 8.40234 5.90625 8.66602 5.90625 8.98975V10.2554C5.90625 10.5709 6.15637 10.8283 6.46875 10.8415L7.48334 22.281C7.56995 23.261 8.37744 24 9.36145 24H14.6224C15.6061 24 16.4138 23.261 16.5011 22.281L16.5688 21.5169C16.5861 21.323 16.4427 21.1518 16.2488 21.1346C16.0558 21.1176 15.8837 21.2606 15.8665 21.4547L15.7987 22.2186C15.744 22.8322 15.2384 23.2949 14.6224 23.2949H9.36145C8.74548 23.2949 8.23993 22.8322 8.18573 22.2186L7.17664 10.8428H16.8073L15.9917 20.0418C15.9745 20.2357 16.1177 20.4069 16.3118 20.4241C16.5049 20.4415 16.6769 20.2982 16.6941 20.1041L17.5151 10.8415C17.8275 10.8283 18.0776 10.5709 18.0776 10.2554V8.98975C18.0776 8.66583 17.8141 8.40234 17.4902 8.40234ZM16.7005 8.40234H11.9945L12.6392 4.07776C14.8328 4.37915 16.5353 6.19409 16.7005 8.40234ZM11.9328 4.03418L11.2815 8.40234H9.85583C9.66119 8.40234 9.50336 8.56036 9.50336 8.755C9.50336 8.94965 9.66119 9.10767 9.85583 9.10767H11.5829C11.5838 9.10767 11.5849 9.10785 11.5858 9.10785C11.5876 9.10785 11.5893 9.10767 11.5909 9.10767H17.0627C17.064 9.10767 17.0651 9.10785 17.0663 9.10785C17.0676 9.10785 17.0687 9.10767 17.07 9.10767H17.3725V10.1378H17.1956C17.1945 10.1378 17.1934 10.1376 17.1925 10.1376H6.79156C6.79047 10.1376 6.78937 10.1378 6.78845 10.1378H6.61139V9.10767H6.91425C6.91534 9.10767 6.91663 9.10785 6.91791 9.10785C6.91901 9.10785 6.92029 9.10767 6.92139 9.10767H8.32013C8.51495 9.10767 8.67279 8.94965 8.67279 8.755C8.67279 8.56036 8.51495 8.40234 8.32013 8.40234H7.28357C7.46301 5.98242 9.47479 4.06458 11.9328 4.03418Z" fill="white" />
</svg>