<svg width="21" height="16" viewBox="0 0 21 16" fill="none" xmlns="http://www.w3.org/2000/svg">
  <g clip-path="url(#clip0_236_8136)">
    <rect width="21" height="15" transform="translate(0 0.5)" fill="#F93939" />
    <path d="M19 0.5H2C0.89543 0.5 0 1.39543 0 2.5V13.5C0 14.6046 0.89543 15.5 2 15.5H19C20.1046 15.5 21 14.6046 21 13.5V2.5C21 1.39543 20.1046 0.5 19 0.5Z" fill="#F93939" />
    <path fill-rule="evenodd" clip-rule="evenodd" d="M5.49909 7.73L4.02909 8.503L4.30909 6.866L3.12109 5.706L4.76409 5.469L5.49909 3.979L6.23309 5.469L7.87609 5.706L6.68609 6.866L6.96809 8.502L5.49909 7.73ZM9.00109 3.5H10.0011V4.5H9.00109V3.5ZM10.0011 5.5H11.0011V6.5H10.0011V5.5ZM10.0011 7.5H11.0011V8.5H10.0011V7.5ZM9.00109 9.5H10.0011V10.5H9.00109V9.5Z" fill="#FFDA2C" />
  </g>
  <defs>
    <clipPath id="clip0_236_8136">
      <rect width="21" height="15" fill="white" transform="translate(0 0.5)" />
    </clipPath>
  </defs>
</svg>