<svg width="21" height="16" viewBox="0 0 21 16" fill="none" xmlns="http://www.w3.org/2000/svg">
  <g clip-path="url(#clip0_236_8100)">
    <rect width="21" height="15" transform="translate(0 0.5)" fill="#F93939" />
    <path d="M19 0.5H2C0.89543 0.5 0 1.39543 0 2.5V13.5C0 14.6046 0.89543 15.5 2 15.5H19C20.1046 15.5 21 14.6046 21 13.5V2.5C21 1.39543 20.1046 0.5 19 0.5Z" fill="#F93939" />
    <path fill-rule="evenodd" clip-rule="evenodd" d="M5 11.5H21V15.5H5V11.5Z" fill="#249F58" />
    <path fill-rule="evenodd" clip-rule="evenodd" d="M3 0.5L5 2L3 3.5V0.5ZM3 3.5L5 5L3 6.5V3.5ZM3 6.5L5 8L3 9.5V6.5ZM3 9.5L5 11L3 12.5V9.5ZM3 12.5L5 14L3 15.5V12.5ZM2 0.5L0 2L2 3.5V0.5ZM2 3.5L0 5L2 6.5V3.5ZM2 6.5L0 8L2 9.5V6.5ZM2 9.5L0 11L2 12.5V9.5ZM2 12.5L0 14L2 15.5V12.5ZM2 0.5H3V2.5H2V0.5ZM2 13.5H3V15.5H2V13.5ZM2 5.5H3V7.5H2V5.5ZM2 3.5H3V4.5H2V3.5ZM2 11.5H3V12.5H2V11.5ZM2 8.5H3V10.5H2V8.5Z" fill="white" />
  </g>
  <defs>
    <clipPath id="clip0_236_8100">
      <rect width="21" height="15" fill="white" transform="translate(0 0.5)" />
    </clipPath>
  </defs>
</svg>