<svg width="24" height="24" viewBox="0 0 24 24" fill="none" xmlns="http://www.w3.org/2000/svg">
  <g clip-path="url(#clip0_288_1964)">
    <path d="M5.59123 12.7974C5.48318 12.9588 5.5264 13.1771 5.6877 13.2852C5.84904 13.3932 6.06743 13.35 6.17548 13.1887L8.7109 9.40283L11.1652 11.8571C11.2338 11.9257 11.3238 11.9601 11.4138 11.9601C11.5038 11.9601 11.5938 11.9258 11.6624 11.8571C11.7998 11.7198 11.7998 11.4972 11.6624 11.3599L9.10981 8.80724L9.41843 8.34641C10.1696 7.22474 11.3709 6.506 12.7144 6.37438C14.0582 6.24275 15.3759 6.71474 16.3304 7.6693C17.2849 8.62381 17.7569 9.94175 17.6253 11.2853C17.4936 12.6287 16.7749 13.8301 15.6533 14.5812L13.9421 15.7272C13.7808 15.8353 13.7375 16.0536 13.8456 16.215C13.9134 16.3162 14.0247 16.3709 14.1381 16.3709C14.2054 16.3709 14.2733 16.3517 14.3334 16.3114L16.0446 15.1654C17.0051 14.5222 17.7097 13.5934 18.0727 12.5239C18.3936 12.5716 18.7155 12.5958 19.0374 12.5958C19.4813 12.5958 19.9249 12.5503 20.3645 12.4596C20.5547 12.4204 20.6771 12.2344 20.6378 12.0442C20.5985 11.854 20.4126 11.7319 20.2223 11.771C19.571 11.9054 18.9101 11.9282 18.254 11.8394C18.285 11.6796 18.309 11.5176 18.3251 11.3538C18.3932 10.6583 18.3211 9.96894 18.1221 9.32038C18.7363 8.96863 19.2786 8.5281 19.7368 8.01974C21.0004 8.17775 22.1518 8.72989 23.0697 9.6208L23.2227 9.76944C23.3197 9.86356 23.3221 10.0191 23.2249 10.1194C22.749 10.6102 22.199 11.0093 21.5903 11.3055C21.4157 11.3905 21.3431 11.6008 21.428 11.7755C21.4888 11.9005 21.6141 11.9733 21.7444 11.9733C21.796 11.9733 21.8484 11.9619 21.898 11.9378C22.5805 11.6057 23.1967 11.1586 23.7328 10.6056C24.0967 10.2304 24.0876 9.62895 23.7125 9.26492L23.5594 9.11628C22.6323 8.21638 21.4925 7.62439 20.2394 7.38664C21.0089 6.2833 21.4313 4.94811 21.4095 3.54186C21.4015 3.01921 20.9706 2.60075 20.447 2.60811L20.2338 2.6113C18.9175 2.63085 17.6631 3.04733 16.6152 3.77141C16.3788 2.51385 15.786 1.3701 14.8834 0.44019L14.7348 0.287096C14.3707 -0.0879973 13.7693 -0.097091 13.3909 0.269846C11.874 1.74046 11.1659 3.84261 11.4756 5.92691C10.4062 6.28996 9.4774 6.99458 8.83418 7.95505L5.59123 12.7974ZM12.6458 5.67458C12.4821 5.69061 12.3203 5.71466 12.1606 5.74555C11.9131 3.91091 12.5457 2.06867 13.8835 0.771737C13.9805 0.677659 14.1361 0.680003 14.2302 0.77694L14.3788 0.930034C15.2715 1.84982 15.8241 3.00383 15.9809 4.27044C15.4688 4.72672 15.0246 5.26583 14.6718 5.87525C14.0254 5.67796 13.3386 5.60671 12.6458 5.67458ZM17.8663 8.65489C17.662 8.21628 17.3952 7.80477 17.0706 7.43291L18.5576 5.94594C18.6949 5.8086 18.6949 5.58603 18.5576 5.44869C18.4203 5.31144 18.1977 5.31144 18.0604 5.44869L16.5739 6.93524C16.1983 6.60627 15.7823 6.33646 15.3385 6.13044C16.3763 4.41608 18.2291 3.34452 20.2443 3.31457L20.4575 3.31138H20.4612C20.5947 3.31138 20.7044 3.41896 20.7065 3.55728C20.739 5.65832 19.6574 7.58497 17.8663 8.65489Z" fill="white" />
    <path d="M0.368623 20.5959C-0.21094 21.4613 -0.0970334 22.6239 0.63942 23.3604C1.06125 23.7822 1.62286 23.9998 2.1884 23.9998C2.61019 23.9998 3.03422 23.8787 3.40387 23.6311L13.0575 17.166C13.2189 17.058 13.2621 16.8396 13.154 16.6783C13.046 16.5169 12.8276 16.4737 12.6662 16.5818L11.5665 17.3182L9.15014 14.9018C9.01284 14.7646 8.79023 14.7646 8.65294 14.9018C8.51564 15.0392 8.51564 15.2618 8.65294 15.3991L10.971 17.7171L3.01261 23.0469C2.42536 23.4401 1.63645 23.3629 1.13667 22.8632C0.636935 22.3634 0.559592 21.5745 0.952873 20.9872L3.85434 16.6547L5.54869 18.349C5.61736 18.4177 5.70731 18.452 5.79731 18.452C5.88731 18.452 5.97726 18.4177 6.04594 18.349C6.18323 18.2117 6.18323 17.9891 6.04594 17.8518L4.25325 16.0591L5.3227 14.4623C5.43075 14.3009 5.38758 14.0825 5.22623 13.9745C5.06489 13.8664 4.8465 13.9096 4.73845 14.0709L0.368623 20.5959Z" fill="white" />
  </g>
  <defs>
    <clipPath id="clip0_288_1964">
      <rect width="24" height="24" fill="white" />
    </clipPath>
  </defs>
</svg>