<svg width="24" height="24" viewBox="0 0 24 24" fill="none" xmlns="http://www.w3.org/2000/svg">
  <g clip-path="url(#clip0_288_1955)">
    <path d="M3.59237 17.1601C3.52155 17.1601 3.44966 17.1399 3.38594 17.0981C1.68974 15.98 0.676758 14.1 0.676758 12.0696C0.676758 8.74677 3.3769 6.04333 6.69569 6.04333C7.38558 6.04333 8.06083 6.16078 8.70918 6.39289C8.7787 6.0819 8.87643 5.77781 9.00106 5.48471C9.08264 5.29311 9.30392 5.20367 9.49464 5.28557C9.68557 5.36725 9.77468 5.58837 9.6931 5.77953C9.53274 6.15712 9.42447 6.55539 9.37151 6.96358C9.35623 7.08169 9.28627 7.18535 9.18209 7.24354C9.07877 7.30195 8.95327 7.30712 8.84479 7.25906C8.16071 6.95216 7.43767 6.79656 6.69548 6.79656C3.79148 6.79656 1.42907 9.16208 1.42907 12.0696C1.42907 13.8459 2.31506 15.4903 3.79945 16.4692C3.97294 16.5836 4.02116 16.817 3.90686 16.9907C3.83475 17.1007 3.71464 17.1601 3.59237 17.1601Z" fill="white" />
    <path d="M19.1097 18.0959H6.31949C6.26805 18.0959 6.21875 18.0856 6.1742 18.0668C5.95528 18.0481 5.73723 18.0173 5.5252 17.9748C5.32136 17.9347 5.18898 17.7364 5.22945 17.5323C5.2697 17.3282 5.46838 17.1946 5.67136 17.2362C5.89071 17.2795 6.11715 17.3091 6.34425 17.3241C6.37675 17.3263 6.40839 17.3326 6.4381 17.3425H19.1097C21.3914 17.3425 23.2477 15.4838 23.2477 13.1994C23.2477 10.9149 21.3914 9.05626 19.1097 9.05626C18.9616 9.05626 18.8055 9.06617 18.6325 9.086C18.5098 9.10346 18.3888 9.05367 18.3072 8.96143C18.2256 8.86919 18.1946 8.74268 18.2235 8.62264C18.3122 8.25841 18.3574 7.89764 18.3574 7.54958C18.3574 5.05734 16.3322 3.02997 13.8431 3.02997C12.8421 3.02997 11.8946 3.35152 11.1024 3.95971C10.9378 4.08665 10.7014 4.0554 10.5751 3.89031C10.4487 3.72544 10.4797 3.48902 10.6444 3.36251C11.5693 2.65216 12.6753 2.27673 13.8431 2.27673C16.747 2.27673 19.1097 4.64225 19.1097 7.54979C19.1097 7.79699 19.0905 8.04936 19.0526 8.30346C21.7913 8.26897 24 10.4808 24 13.1994C24 15.8994 21.8062 18.0959 19.1097 18.0959Z" fill="white" />
    <path d="M15.5878 7.62154C15.4916 7.62154 15.3951 7.58469 15.3217 7.51119C15.1749 7.36421 15.1749 7.12563 15.3217 6.97865L15.8685 6.43102L15.3366 5.89848L14.7892 6.44654C14.6422 6.59352 14.4041 6.59352 14.2571 6.44654C14.1103 6.29934 14.1103 6.06098 14.2571 5.91378L15.0707 5.09956C15.2175 4.95257 15.4556 4.95257 15.6026 5.09956L16.6664 6.16464C16.8134 6.31184 16.8134 6.5502 16.6664 6.6974L15.8536 7.51141C15.7802 7.58469 15.684 7.62154 15.5878 7.62154Z" fill="white" />
    <path d="M1.4401 21.7866C1.34388 21.7866 1.24745 21.7498 1.17405 21.6763L0.110264 20.611C-0.0367546 20.464 -0.0367546 20.2256 0.110264 20.0784L10.5488 9.62693C10.6956 9.47995 10.9339 9.47995 11.0807 9.62693L12.1447 10.6922C12.2153 10.7627 12.2549 10.8584 12.2549 10.9584C12.2549 11.0584 12.2153 11.1541 12.1447 11.2248L1.70594 21.6763C1.63254 21.7498 1.53632 21.7866 1.4401 21.7866ZM0.90821 20.3446L1.4401 20.8774L11.3467 10.9584L10.8146 10.4259L0.90821 20.3446Z" fill="white" />
    <path d="M18.7239 16.8799C18.5754 16.8799 18.4383 16.7916 18.3784 16.6517C17.4875 14.5728 16.1407 12.4511 14.4711 10.4935L12.9426 12.0239C12.8016 12.1653 12.5517 12.1653 12.4107 12.0239L9.75084 9.36055C9.60382 9.21357 9.60382 8.97521 9.75084 8.82801L11.2791 7.29762C9.32335 5.62542 7.20395 4.27715 5.12847 3.38577C4.97263 3.31896 4.88072 3.15624 4.90396 2.98814C4.92721 2.82004 5.05959 2.68836 5.22771 2.66637C8.7413 2.2015 12.5214 3.61206 15.3367 6.43103C18.152 9.24999 19.5576 13.0336 19.097 16.5521C19.075 16.7203 18.9433 16.853 18.7756 16.8761C18.7581 16.8789 18.7409 16.8799 18.7239 16.8799ZM14.4912 9.56443C14.495 9.56443 14.4991 9.56443 14.5032 9.56486C14.6072 9.5681 14.7051 9.614 14.7736 9.69245C16.2481 11.3722 17.4935 13.183 18.4286 14.9968C18.3649 12.1461 17.0675 9.22973 14.8048 6.96357C12.5418 4.69827 9.62836 3.39935 6.78163 3.33555C8.59256 4.27133 10.4009 5.51853 12.0795 6.99482C12.1574 7.06357 12.2037 7.16142 12.2069 7.26551C12.2103 7.36961 12.1703 7.47047 12.0969 7.54396L10.5486 9.09439L12.6766 11.2252L14.2251 9.67478C14.2959 9.60409 14.3915 9.56443 14.4912 9.56443Z" fill="white" />
    <path d="M2.18144 12.4461C1.97372 12.4461 1.80518 12.2778 1.80518 12.0696C1.80518 9.39269 3.89788 7.24225 6.56961 7.1748C6.77195 7.16338 6.94975 7.33385 6.95513 7.54182C6.96051 7.74958 6.79649 7.92243 6.58877 7.92803C4.32838 7.98493 2.5577 9.80432 2.5577 12.0696C2.55749 12.2778 2.38916 12.4461 2.18144 12.4461Z" fill="white" />
  </g>
  <defs>
    <clipPath id="clip0_288_1955">
      <rect width="24" height="24" fill="white" />
    </clipPath>
  </defs>
</svg>