<svg width="18" height="18" viewBox="0 0 18 18" fill="none" xmlns="http://www.w3.org/2000/svg">
  <path fill-rule="evenodd" clip-rule="evenodd" d="M2.85481 4.65479C3.52991 3.9799 4.44542 3.60076 5.40001 3.60076C6.3546 3.60076 7.27011 3.9799 7.94521 4.65479L9.00001 5.70869L10.0548 4.65479C10.3869 4.31096 10.7841 4.0367 11.2234 3.84803C11.6626 3.65936 12.135 3.56005 12.613 3.55589C13.091 3.55174 13.565 3.64282 14.0074 3.82384C14.4499 4.00485 14.8518 4.27216 15.1898 4.61017C15.5278 4.94818 15.7952 5.35013 15.9762 5.79256C16.1572 6.23499 16.2483 6.70903 16.2441 7.18704C16.24 7.66504 16.1406 8.13743 15.952 8.57665C15.7633 9.01586 15.489 9.4131 15.1452 9.74519L9.00001 15.8913L2.85481 9.74519C2.17992 9.07009 1.80078 8.15458 1.80078 7.19999C1.80078 6.2454 2.17992 5.32989 2.85481 4.65479V4.65479Z" stroke="white" stroke-opacity="0.7" stroke-linejoin="round" />
</svg>