<svg width="200" height="69" viewBox="0 0 200 69" fill="none" xmlns="http://www.w3.org/2000/svg">
<g clip-path="url(#clip0_193_2937)">
<path d="M43.9767 50.4554H45.633C45.633 50.0891 45.5685 49.0692 44.5862 49.0692C44.4568 49.0566 44.3262 49.0722 44.2034 49.1147C44.0806 49.1573 43.9684 49.226 43.8744 49.316C43.7805 49.406 43.7071 49.5152 43.6591 49.6362C43.6112 49.7573 43.5899 49.8872 43.5967 50.0173H42.7865C42.7865 49.6869 42.9442 48.5808 44.579 48.5808C45.4824 48.5808 46.5149 48.8106 46.5149 50.8432C46.5149 52.725 45.4322 53.041 44.5862 53.041C42.894 53.041 42.7578 51.8846 42.7578 51.4465H43.568C43.5524 51.5876 43.5674 51.7303 43.612 51.865C43.6566 51.9997 43.7298 52.1232 43.8265 52.2269C43.9232 52.3306 44.0412 52.4121 44.1723 52.4658C44.3035 52.5196 44.4446 52.5443 44.5862 52.5382C45.5254 52.5382 45.633 51.6836 45.633 50.9869H43.9767V50.4554Z" fill="white"/>
<path d="M52.1935 48.7245H53.1256L51.3188 50.6422L53.2189 52.8543H52.2867L50.7093 50.9797V52.8543H49.8633V48.7245H50.7093V50.3477L52.1935 48.7245Z" fill="white"/>
<path d="M59.7366 51.382C59.7418 51.6103 59.6985 51.8371 59.6095 52.0474C59.5205 52.2576 59.3878 52.4465 59.2203 52.6014C59.0528 52.7563 58.8542 52.8737 58.6379 52.9458C58.4215 53.0179 58.1923 53.043 57.9656 53.0195C57.4852 53.0195 56.001 52.9549 56.001 50.7571C56.001 50.0389 56.1874 48.5593 57.9297 48.5593C59.1199 48.5593 59.7079 49.2776 59.7079 49.9958H58.8977C58.8997 49.8695 58.8761 49.7441 58.8283 49.6273C58.7806 49.5104 58.7096 49.4044 58.6198 49.3158C58.53 49.2272 58.4232 49.1577 58.3058 49.1116C58.1884 49.0656 58.0629 49.0438 57.9369 49.0477C57.3705 49.0477 56.8757 49.4284 56.8757 50.7356C56.8757 52.3013 57.6286 52.4952 57.9871 52.4952C58.3456 52.4952 58.9048 52.2582 58.9263 51.3604L59.7366 51.382Z" fill="white"/>
<path d="M63.8809 52.8543H63.042V48.7245H66.5051V52.8543H65.6662V49.2273H63.8809V52.8543Z" fill="white"/>
<path d="M73.6541 51.662C73.6286 51.8684 73.5623 52.0676 73.459 52.248C73.3558 52.4284 73.2177 52.5864 73.0528 52.7128C72.888 52.8392 72.6996 52.9314 72.4988 52.984C72.298 53.0367 72.0887 53.0487 71.8832 53.0195C71.5974 53.0308 71.3127 52.9799 71.0484 52.8704C70.7842 52.7609 70.5468 52.5953 70.3526 52.3851C70.1584 52.1748 70.012 51.9249 69.9234 51.6526C69.8349 51.3802 69.8063 51.0919 69.8397 50.8074C69.8397 49.5792 70.3344 48.5593 71.833 48.5593C72.7149 48.5593 73.5825 48.9041 73.6828 50.5991C73.6828 50.7212 73.6828 50.8289 73.6828 50.951H70.7144C70.7144 51.5471 70.9582 52.5167 71.8545 52.5167C72.0967 52.5289 72.3342 52.4467 72.5173 52.2874C72.7004 52.1281 72.8148 51.904 72.8368 51.662H73.6541ZM72.8152 50.4483C72.8152 49.1626 72.1413 49.0693 71.833 49.0693C70.8148 49.0693 70.7144 50.082 70.7216 50.4483H72.8152Z" fill="white"/>
<path d="M77.8408 48.7245V49.1482C77.9685 48.9524 78.1462 48.7944 78.3556 48.6909C78.5649 48.5873 78.7982 48.5418 79.0311 48.5593C80.042 48.5593 80.8594 49.2775 80.8594 50.793C80.8594 52.1433 80.1998 53.0195 79.0382 53.0195C78.8162 53.0317 78.5943 52.9919 78.3903 52.9034C78.1862 52.8149 78.0054 52.6801 77.8623 52.5096V54.3626H77.0234V48.7245H77.8408ZM78.9378 52.5024C79.5186 52.5024 79.9918 52.1002 79.9918 50.7786C79.9918 49.3063 79.2748 49.0549 78.8948 49.0549C78.5148 49.0549 77.8337 49.4212 77.8337 50.793C77.8408 52.3731 78.6797 52.5024 78.9378 52.5024Z" fill="white"/>
<path d="M83.7637 49.2273V48.7245H87.2841V49.2273H85.9433V52.8543H85.1045V49.2273H83.7637Z" fill="white"/>
<path d="M91.292 48.7244V50.3476H92.2241C92.6041 50.3476 93.8159 50.3476 93.8159 51.6045C93.8159 52.0786 93.6151 52.8399 92.3173 52.8399H90.4531V48.7101L91.292 48.7244ZM91.292 52.3515H92.009C92.4105 52.3515 92.9268 52.2725 92.9268 51.5686C92.9268 50.8648 92.26 50.8504 92.0377 50.8504H91.3207L91.292 52.3515ZM94.9631 48.7244V52.8542H94.1242V48.7244H94.9631Z" fill="white"/>
<path d="M104.506 50.4554H106.184C106.184 50.0891 106.112 49.0692 105.13 49.0692C105 49.0566 104.87 49.0722 104.747 49.1147C104.624 49.1573 104.512 49.226 104.418 49.316C104.324 49.406 104.251 49.5152 104.203 49.6362C104.155 49.7573 104.134 49.8872 104.14 50.0173H103.316C103.316 49.6869 103.481 48.5808 105.108 48.5808C106.019 48.5808 107.044 48.8106 107.044 50.8432C107.044 52.725 105.969 53.041 105.115 53.041C103.431 53.041 103.287 51.8846 103.287 51.4465H104.097C104.083 51.5873 104.099 51.7296 104.144 51.8638C104.189 51.9979 104.262 52.1208 104.359 52.2243C104.455 52.3277 104.573 52.4093 104.703 52.4634C104.834 52.5176 104.974 52.5431 105.115 52.5382C106.055 52.5382 106.169 51.6836 106.169 50.9869H104.506V50.4554Z" fill="white"/>
<path d="M112.731 48.7245H113.663L111.849 50.6422L113.749 52.8543H112.817L111.239 50.9797V52.8543H110.4V48.7245H111.239V50.3477L112.731 48.7245Z" fill="white"/>
<path d="M120.273 51.382C120.278 51.6103 120.235 51.8371 120.146 52.0474C120.057 52.2576 119.924 52.4465 119.757 52.6014C119.589 52.7563 119.391 52.8737 119.174 52.9458C118.958 53.0179 118.729 53.043 118.502 53.0195C118.022 53.0195 116.53 52.9549 116.53 50.7571C116.53 50.0389 116.717 48.5593 118.459 48.5593C119.649 48.5593 120.237 49.2776 120.237 49.9958H119.427C119.431 49.8696 119.409 49.7439 119.362 49.6265C119.316 49.5092 119.246 49.4028 119.156 49.3138C119.067 49.2249 118.96 49.1553 118.842 49.1095C118.725 49.0638 118.599 49.0427 118.473 49.0477C117.9 49.0477 117.412 49.4284 117.412 50.7356C117.412 52.3013 118.129 52.4952 118.524 52.4952C118.918 52.4952 119.441 52.2582 119.463 51.3604L120.273 51.382Z" fill="white"/>
<path d="M124.403 52.8543H123.564V48.7245H127.02V52.8543H126.182V49.2273H124.403V52.8543Z" fill="white"/>
<path d="M132.355 48.5593C134.176 48.5593 134.334 50.1897 134.334 50.7858C134.334 51.3819 134.176 53.0195 132.355 53.0195C130.534 53.0195 130.376 51.3676 130.376 50.7858C130.376 50.204 130.562 48.5593 132.355 48.5593ZM132.355 52.5167C133.072 52.5167 133.452 51.856 133.452 50.7858C133.452 49.9958 133.215 49.0693 132.355 49.0693C131.495 49.0693 131.251 49.9958 131.251 50.7858C131.279 51.856 131.652 52.5024 132.355 52.5024V52.5167Z" fill="white"/>
<path d="M138.485 48.7244V49.1482C138.612 48.9518 138.789 48.7934 138.999 48.6897C139.208 48.5861 139.442 48.541 139.675 48.5593C140.686 48.5593 141.503 49.2775 141.503 50.7929C141.503 52.1432 140.844 53.0194 139.682 53.0194C139.46 53.0316 139.238 52.9918 139.034 52.9033C138.83 52.8148 138.649 52.68 138.506 52.5095V54.3625H137.66V48.7244H138.485ZM139.582 52.5167C140.162 52.5167 140.643 52.1145 140.643 50.7929C140.643 49.3206 139.926 49.0692 139.546 49.0692C139.166 49.0692 138.485 49.4355 138.485 50.8073C138.485 52.373 139.324 52.5023 139.582 52.5023V52.5167Z" fill="white"/>
<path d="M144.407 49.2273V48.7245H147.928V49.2273H146.587V52.8543H145.748V49.2273H144.407Z" fill="white"/>
<path d="M150.875 49.9455C150.875 49.6438 150.961 48.5593 152.61 48.5593C153.736 48.5593 154.23 49.0405 154.23 49.9527V51.9494C154.23 52.3085 154.266 52.3516 154.467 52.3516H154.596V52.8615C154.468 52.8862 154.339 52.8982 154.209 52.8974C154.064 52.9286 153.912 52.9075 153.781 52.8378C153.65 52.7682 153.548 52.6545 153.492 52.5167C153.318 52.6889 153.11 52.823 152.882 52.9108C152.654 52.9986 152.41 53.038 152.165 53.0267C151.033 53.0267 150.731 52.3946 150.731 51.7842C150.731 50.7355 151.714 50.5775 152.495 50.4985C153.277 50.4195 153.377 50.4123 153.377 49.9455C153.377 49.1698 152.961 49.0764 152.596 49.0764C151.735 49.0764 151.671 49.6726 151.685 49.9527L150.875 49.9455ZM153.392 50.8505C152.316 51.0875 151.621 50.8505 151.621 51.7913C151.621 52.0499 151.656 52.5096 152.295 52.5096C153.169 52.5096 153.392 51.9494 153.392 51.0731V50.8505Z" fill="white"/>
<path d="M93.7511 23.3208C93.4042 21.9031 92.5195 20.6767 91.2846 19.902C89.7041 19.0199 87.9075 18.6018 86.1007 18.6954C84.1642 18.6559 82.2427 19.0433 80.4722 19.8302C78.8931 20.5614 77.526 21.6836 76.5 23.0909C75.3921 24.659 74.6184 26.4389 74.2271 28.3196C73.9043 29.6293 73.7929 30.9823 73.8973 32.3273C73.9847 33.4457 74.3656 34.521 75.0015 35.4444C75.6752 36.3448 76.5865 37.0389 77.6329 37.4483C78.9447 37.9548 80.3429 38.1988 81.7485 38.1665C83.2523 38.1844 84.749 37.9564 86.1795 37.4914C87.4492 37.0792 88.6241 36.4175 89.6355 35.545C90.6296 34.6734 91.4685 33.6387 92.1163 32.4853C92.8141 31.2353 93.3261 29.89 93.6363 28.492C94.0887 26.8025 94.1281 25.0287 93.7511 23.3208ZM82.4081 34.6687C81.5934 34.7209 80.787 34.4788 80.1352 33.9864C79.5759 33.45 79.2402 32.7211 79.1959 31.9467C79.1055 30.7812 79.2097 29.6087 79.5043 28.4776C79.7618 27.2549 80.1966 26.0764 80.7949 24.9799C81.2614 24.1074 81.9394 23.3665 82.7666 22.8252C83.5774 22.3367 84.5094 22.0877 85.4554 22.1069C86.9252 22.1069 87.8932 22.6097 88.3234 23.608C88.7536 24.6064 88.7751 26.2296 88.3234 28.3196C88.0655 29.5493 87.6359 30.7365 87.0471 31.8461C86.5853 32.7016 85.9143 33.4257 85.0969 33.9505C84.2841 34.4344 83.3534 34.683 82.4081 34.6687Z" fill="white"/>
<path d="M138.256 18.9827H121.844L121.048 22.4589H127.429L123.844 38.1521H128.239L131.824 22.4589H134.692C135.485 22.4581 136.253 22.1886 136.873 21.6943C137.493 21.2 137.927 20.51 138.105 19.7368L138.256 18.9827Z" fill="white"/>
<path d="M150.638 29.9356L153.915 26.4882H145.863L146.802 22.4086H155.506L156.288 18.9899H143.188L138.879 37.7787L138.793 38.1521H150.193L154.438 34.7047H143.977L145.074 29.9356H150.638Z" fill="white"/>
<path d="M198.942 18.9827C197.988 18.987 197.062 19.309 196.311 19.898C195.559 20.487 195.024 21.3095 194.791 22.2362L192.575 31.1853C192.414 31.923 192.128 32.6276 191.729 33.2682C191.419 33.7558 190.966 34.1348 190.431 34.3527C189.836 34.5754 189.203 34.6827 188.567 34.6687C188.188 34.7122 187.803 34.6752 187.439 34.5601C187.074 34.445 186.738 34.2545 186.452 34.0008C186.065 33.5483 186.036 32.6577 186.359 31.3434L189.327 19.349L189.42 18.9827H187.986C187.03 18.9858 186.102 19.3081 185.349 19.8986C184.596 20.4891 184.061 21.3142 183.828 22.2434L181.469 31.7312C180.974 33.7422 181.268 35.3223 182.358 36.4571C183.448 37.5919 185.262 38.1521 187.786 38.1521C189.327 38.1931 190.863 37.9496 192.317 37.4339C193.53 36.9825 194.615 36.2431 195.479 35.2792C196.306 34.327 196.892 33.1886 197.186 31.961L200.297 19.3921L200.391 19.0258L198.942 18.9827Z" fill="white"/>
<path d="M113.147 18.9899H100.542L96.2397 37.7859L96.1465 38.1378H97.1431C98.0894 38.1373 99.0074 37.8152 99.7472 37.2242C100.487 36.6332 101.005 35.8082 101.216 34.8842L103.897 23.2059H103.976H104.428H112.164C112.4 23.1903 112.636 23.2332 112.851 23.331C113.066 23.4287 113.254 23.5782 113.398 23.7661C113.552 24.0731 113.638 24.4106 113.648 24.7544C113.658 25.0983 113.592 25.4401 113.455 25.7556C113.125 26.7324 112.336 27.7163 111.304 27.7163H103.74L104.033 28.176C106.012 31.2644 109.87 37.2257 110.293 37.7212L110.379 37.8218H110.487C111.433 37.8218 112.917 37.8218 113.993 37.8218H115.577L115.212 37.3406C114.315 36.1411 112.623 33.85 111.268 31.839C114.201 31.5014 116.287 29.4257 117.233 25.7556C117.649 24.2114 117.7 22.0352 116.61 20.5484C116.204 20.0246 115.676 19.6085 115.072 19.3367C114.468 19.065 113.807 18.9459 113.147 18.9899Z" fill="white"/>
<path d="M174.572 18.9899H161.974L157.672 37.7859L157.586 38.1594H158.683C159.601 38.1597 160.491 37.848 161.209 37.2752C161.927 36.7024 162.429 35.9024 162.634 35.0064L165.337 23.2274H165.416H165.867H173.582C173.818 23.2118 174.054 23.2548 174.269 23.3525C174.484 23.4503 174.672 23.5997 174.815 23.7876C174.972 24.0941 175.059 24.4317 175.069 24.7759C175.079 25.1201 175.012 25.4622 174.873 25.7771C174.55 26.7539 173.754 27.7379 172.722 27.7379H165.165L165.466 28.1976C167.445 31.2859 171.295 37.2472 171.718 37.7428L171.804 37.8433H171.94C172.887 37.8433 174.371 37.8433 175.446 37.8433H177.031L176.665 37.3621C175.769 36.1627 174.084 33.8716 172.722 31.8605C175.662 31.523 177.741 29.4473 178.694 25.7771C179.103 24.233 179.153 22.0567 178.071 20.57C177.662 20.0384 177.129 19.6159 176.519 19.3403C175.909 19.0646 175.24 18.9443 174.572 18.9899Z" fill="white"/>
<path d="M37.237 38.0229C30.7839 26.991 21.4629 22.5667 14.4865 20.527C7.8686 18.9612 4.36964 19.0259 3.88208 19.0187C3.88208 19.3275 -0.0829315 36.6152 -0.419922 37.9727C-0.354279 37.9909 -0.287062 38.003 -0.219162 38.0086H12.9736L17.3115 34.6114H4.83569C4.98626 33.9578 5.55269 31.444 5.73194 30.697C5.88251 30.0794 6.06893 29.9788 6.578 29.9788H10.923C11.3691 29.9618 11.791 29.7711 12.0989 29.4473L15.6839 26.5313H6.73574C6.87914 25.9424 7.54596 23.1269 7.632 22.5954C7.71804 22.0639 7.85426 22.0137 8.24144 22.0209C12.6868 21.9131 21.7426 23.917 26.8835 30.776L17.7059 37.9583H18.3296C19.7636 37.9583 21.0758 38.0158 22.6317 37.9942C24.2879 37.9942 24.9978 37.7572 26.4819 36.6368C27.4356 35.8395 29.4503 34.3313 29.4503 34.3313C29.4503 34.3313 30.4972 36.1627 30.9417 37.0821C31.0304 37.3677 31.2138 37.6145 31.4615 37.7817C31.7092 37.9488 32.0064 38.0263 32.304 38.0014L37.237 38.0229Z" fill="#E1251B"/>
<path d="M36.4921 27.5798C40.3209 24.7069 43.8557 21.9274 47.7418 18.9971C47.64 18.9764 47.5371 18.962 47.4335 18.954C45.1821 18.954 44.458 18.954 42.2066 18.954C41.0995 18.9158 40.0213 19.3128 39.2024 20.06C36.7789 21.8843 37.5102 21.3097 33.0218 24.6423C30.7704 23.2489 17.6206 17.0004 4.09082 17.8622C8.063 17.7976 15.8711 18.6667 24.6186 22.7749C28.0512 24.4888 31.271 26.6005 34.212 29.0666C37.1284 31.7162 39.7119 34.7117 41.9054 37.987H43.8055H44.0565H46.0856C43.2462 33.8715 40.3137 30.3666 36.4921 27.5798Z" fill="white"/>
<path d="M70.5706 20.6777C70.1636 20.147 69.6317 19.7256 69.0224 19.4511C68.413 19.1766 67.7453 19.0576 67.0789 19.1048H54.0509L49.6199 37.671L49.541 38.0444H50.5305C51.4771 38.0452 52.3958 37.7236 53.1358 37.1324C53.8758 36.5412 54.3932 35.7155 54.603 34.7909L55.4133 31.918L65.229 31.9682C68.1615 31.6307 70.248 29.555 71.1945 25.8849C71.6103 24.3407 71.6605 22.1644 70.5706 20.6777ZM67.3872 25.8633C67.0574 26.8401 66.2615 27.8241 65.2362 27.8241H56.5605L57.8295 23.328H57.9084H58.3601H66.0966C66.3323 23.3124 66.5682 23.3553 66.7834 23.4531C66.9985 23.5508 67.1862 23.7003 67.3298 23.8882C67.4825 24.1933 67.5668 24.5282 67.5767 24.8694C67.5866 25.2106 67.5219 25.5498 67.3872 25.8633Z" fill="white"/>
</g>
<defs>
<clipPath id="clip0_193_2937">
<rect width="232" height="69" fill="white" transform="translate(-16)"/>
</clipPath>
</defs>
</svg>
