<svg width="24" height="24" viewBox="0 0 24 24" fill="none" xmlns="http://www.w3.org/2000/svg">
  <path d="M5.396 9.768V20.76C5.396 21.444 5.956 22.004 6.64 22.004H17.36C18.044 22.004 18.604 21.448 18.604 20.76V9.768C18.604 9.304 18.44 8.852 18.136 8.5L16.408 6.472H16.448C17.124 6.472 17.672 5.924 17.672 5.248V3.224C17.672 2.548 17.124 2 16.448 2H7.548C6.872 2 6.324 2.548 6.324 3.224V5.248C6.324 5.924 6.872 6.472 7.548 6.472H7.588L5.86 8.5C5.564 8.852 5.396 9.3 5.396 9.768ZM7.548 5.672C7.316 5.672 7.124 5.484 7.124 5.248V3.224C7.124 2.992 7.316 2.8 7.548 2.8H16.452C16.684 2.8 16.876 2.988 16.876 3.224V5.248C16.876 5.48 16.688 5.672 16.452 5.672H7.548ZM8.64 6.472H15.36L17.452 8.928H6.548L8.64 6.472ZM6.196 9.768C6.196 9.756 6.2 9.744 6.2 9.728H17.8C17.8 9.74 17.804 9.752 17.804 9.768V18.5H6.196V9.768ZM6.196 19.3H17.804V20.756C17.804 21 17.604 21.2 17.36 21.2H6.64C6.396 21.2 6.196 21 6.196 20.756V19.3Z" fill="white" />
  <path d="M14.9079 13H13.2359V11.328C13.2359 11.108 13.0559 10.928 12.8359 10.928H11.1639C10.9439 10.928 10.7639 11.108 10.7639 11.328V13H9.09189C8.87189 13 8.69189 13.18 8.69189 13.4V15.072C8.69189 15.292 8.87189 15.472 9.09189 15.472H10.7639V17.144C10.7639 17.364 10.9439 17.544 11.1639 17.544H12.8359C13.0559 17.544 13.2359 17.364 13.2359 17.144V15.472H14.9079C15.1279 15.472 15.3079 15.292 15.3079 15.072V13.4C15.3079 13.18 15.1279 13 14.9079 13ZM14.5079 14.672H12.8359C12.6159 14.672 12.4359 14.852 12.4359 15.072V16.744H11.5639V15.072C11.5639 14.852 11.3839 14.672 11.1639 14.672H9.49189V13.8H11.1639C11.3839 13.8 11.5639 13.62 11.5639 13.4V11.728H12.4359V13.4C12.4359 13.62 12.6159 13.8 12.8359 13.8H14.5079V14.672Z" fill="white" />
</svg>