<svg width="24" height="24" viewBox="0 0 24 24" fill="none" xmlns="http://www.w3.org/2000/svg">
  <path d="M13.8506 3.21533C14.0268 4.62415 15.2311 5.71783 16.6866 5.71783C18.2631 5.71783 19.5456 4.43536 19.5456 2.85901C19.5456 1.28247 18.2631 0 16.6866 0C15.2311 0 14.0268 1.09387 13.8506 2.5025H13.0712V1.36761C13.0712 1.17078 12.9117 1.01129 12.7147 1.01129H10.2231C10.0261 1.01129 9.86664 1.17078 9.86664 1.36761V2.48712C9.86664 2.68396 10.0261 2.84363 10.2231 2.84363C10.42 2.84363 10.5795 2.68396 10.5795 2.48712V1.72412H12.3583V4.65289H10.5795V3.91296C10.5795 3.71613 10.42 3.55664 10.2231 3.55664C10.0261 3.55664 9.86664 3.71613 9.86664 3.91296V4.65289H9.01282C8.81598 4.65289 8.65631 4.81238 8.65631 5.00922V6.39185C6.33398 6.57422 4.5 8.52228 4.5 10.8907V20.7887C4.5 22.5593 5.94067 24 7.7113 24H15.2263C16.9971 24 18.4378 22.5593 18.4378 20.7887V18.3534C18.4378 18.1566 18.2783 17.9969 18.0813 17.9969C17.8845 17.9969 17.725 18.1566 17.725 18.3534V20.7887C17.725 22.1664 16.604 23.2872 15.2263 23.2872H7.7113C6.45465 23.2872 5.41223 22.3544 5.23865 21.145H16.6917C16.8885 21.145 17.0482 20.9855 17.0482 20.7887C17.0482 20.5917 16.8885 20.4322 16.6917 20.4322H5.21283V11.2471H16.6917C16.8887 11.2471 17.0482 11.0876 17.0482 10.8907C17.0482 10.6939 16.8887 10.5342 16.6917 10.5342H5.23004C5.4104 8.60559 7.03766 7.09076 9.01282 7.09076H13.925C16.0203 7.09076 17.725 8.79547 17.725 10.8907V16.9276C17.725 17.1244 17.8845 17.2841 18.0813 17.2841C18.2783 17.2841 18.4378 17.1244 18.4378 16.9276V10.8907C18.4378 8.52228 16.6038 6.57422 14.2813 6.39185V5.00922C14.2813 4.81238 14.1218 4.65289 13.925 4.65289H13.0712V3.21533H13.8506ZM16.6866 0.71283C17.87 0.71283 18.8328 1.6756 18.8328 2.85901C18.8328 4.04224 17.87 5.005 16.6866 5.005C15.5034 5.005 14.5406 4.04224 14.5406 2.85901C14.5406 1.6756 15.5032 0.71283 16.6866 0.71283ZM13.5685 6.37793H9.36932V5.36572H13.5685V6.37793Z" fill="white" />
  <path d="M15.7163 2.40746C15.6522 2.54479 15.6162 2.69768 15.6162 2.85899C15.6162 3.44914 16.0963 3.92925 16.6864 3.92925C17.2766 3.92925 17.7569 3.44914 17.7569 2.85899C17.7569 2.26885 17.2766 1.78856 16.6864 1.78856C16.5174 1.78856 16.3576 1.82811 16.2151 1.89824L15.8549 1.54521C15.7145 1.40752 15.4887 1.40953 15.3508 1.55016C15.2132 1.69078 15.2154 1.91637 15.356 2.05425L15.7163 2.40746ZM17.0438 2.85899C17.0438 3.05602 16.8836 3.21642 16.6864 3.21642C16.4894 3.21642 16.329 3.05602 16.329 2.85899C16.329 2.66179 16.4894 2.50157 16.6864 2.50157C16.8836 2.50157 17.0438 2.66179 17.0438 2.85899Z" fill="white" />
  <path d="M8.36304 14.3611C8.77209 14.3611 8.98212 14.5499 9.02386 14.9544C9.02936 15.0941 9.14307 15.1712 9.34412 15.1712C9.53619 15.1712 9.66418 15.1187 9.66418 14.8623C9.66418 14.2205 9.13446 13.7893 8.34583 13.7893C7.86829 13.7893 7.06738 13.9568 7.06738 15.0791V16.7391C7.06738 17.5708 7.52753 18.0289 8.36304 18.0289C9.20203 18.0289 9.66418 17.5708 9.66418 16.7391V15.9919C9.66418 15.8809 9.58966 15.7687 9.44684 15.7687H8.46558C8.33319 15.7687 8.25391 15.8994 8.25391 16.0259C8.25391 16.1567 8.3266 16.2891 8.46558 16.2891H9.02386V16.739C9.02386 17.2088 8.79535 17.4571 8.36304 17.4571C7.92816 17.4571 7.7077 17.2154 7.7077 16.739V15.0791C7.7077 14.6027 7.92816 14.3611 8.36304 14.3611Z" fill="white" />
  <path d="M11.5233 13.7551C11.3248 13.7551 11.1682 13.8404 11.1241 13.973L9.98901 17.6689C9.98242 17.6887 9.98242 17.7076 9.98242 17.7259C9.98242 17.8923 10.212 17.9947 10.3766 17.9947C10.4995 17.9947 10.576 17.9482 10.605 17.8563L10.8351 17.0592H12.2172L12.4474 17.8566C12.4758 17.9469 12.5527 17.9947 12.6699 17.9947C12.8548 17.9947 13.0699 17.8773 13.0699 17.7259C13.0699 17.7059 13.0635 17.6871 13.0577 17.6693L11.9281 13.9726C11.8745 13.812 11.6765 13.7551 11.5233 13.7551ZM12.0698 16.5386H10.9765L11.5233 14.6636L12.0698 16.5386Z" fill="white" />
  <path d="M14.529 17.4571C14.1326 17.4571 13.9339 17.2773 13.7891 17.146C13.703 17.068 13.6351 17.0065 13.5536 17.0065C13.4055 17.0065 13.2734 17.1982 13.2734 17.3494C13.2734 17.631 13.7715 18.0403 14.5519 18.0403C15.3775 18.0403 15.8702 17.5796 15.8702 16.8076C15.8702 15.9265 15.2387 15.6711 14.7313 15.466C14.3477 15.3107 14.0165 15.1769 14.0165 14.8282C14.0165 14.3921 14.4519 14.3271 14.7115 14.3271C15.0173 14.3271 15.1867 14.4141 15.3103 14.4776C15.3823 14.5146 15.439 14.5437 15.4987 14.5437C15.6864 14.5437 15.7675 14.3167 15.7675 14.2007C15.7675 13.8865 15.1362 13.7723 14.7115 13.7723C14.3598 13.7723 14.041 13.8554 13.814 14.0063C13.5234 14.1995 13.3762 14.4952 13.3762 14.8854C13.3762 15.6337 13.9304 15.8676 14.4193 16.0737C14.8362 16.2497 15.2299 16.4158 15.2299 16.8704C15.2299 17.2377 14.9679 17.4571 14.529 17.4571Z" fill="white" />
</svg>