<svg width="24" height="24" viewBox="0 0 24 24" fill="none" xmlns="http://www.w3.org/2000/svg">
  <path d="M23.8494 8.1807C23.6954 7.90461 23.4429 7.70497 23.1388 7.61862L20.4677 6.8608C20.258 6.80141 20.0399 6.92305 19.9803 7.13272C19.9209 7.34239 20.0426 7.56055 20.2523 7.62008L22.9233 8.3779C23.1327 8.43729 23.2546 8.65592 23.1952 8.86522L19.9666 20.2441C19.9379 20.3455 19.8713 20.4296 19.7793 20.4809C19.6873 20.5322 19.5808 20.5446 19.4834 20.5171L16.3017 19.577H17.9137C18.5664 19.577 19.0974 19.046 19.0974 18.3932V3.8631C19.0974 3.21032 18.5664 2.67932 17.9137 2.67932H6.08581C5.43303 2.67932 4.90203 3.21032 4.90203 3.8631V18.3933C4.90203 19.0461 5.43303 19.5771 6.08581 19.5771H7.82932L4.52018 20.516C4.41879 20.5448 4.31225 20.5324 4.22019 20.481C4.12817 20.4296 4.06161 20.3455 4.03283 20.2441L0.80427 8.86522C0.74488 8.65587 0.866848 8.43734 1.07619 8.3779L3.83511 7.59514C4.04478 7.53566 4.16647 7.31745 4.10703 7.10778C4.04755 6.89811 3.8293 6.77647 3.61972 6.83586L0.860755 7.61862C0.232818 7.79684 -0.133087 8.45267 0.0450844 9.08061L3.27355 20.4595C3.35989 20.7637 3.55948 21.0161 3.83562 21.1701C4.01441 21.2699 4.21142 21.3207 4.41069 21.3207C4.51915 21.3207 4.62833 21.3056 4.73558 21.2752L10.7206 19.5771H13.5169L19.264 21.2752C19.3713 21.3056 19.4804 21.3207 19.5889 21.3207C19.7881 21.3207 19.9852 21.2699 20.1639 21.1701C20.4401 21.0161 20.6397 20.7637 20.726 20.4595L23.9545 9.08061C24.0408 8.77643 24.0035 8.45684 23.8494 8.1807ZM13.5667 18.7879H6.08581C5.86821 18.7879 5.69121 18.6108 5.69121 18.3933V3.8631C5.69121 3.64551 5.86821 3.46851 6.08581 3.46851H17.9138C18.1313 3.46851 18.3084 3.64551 18.3084 3.8631V18.3933C18.3084 18.6109 18.1313 18.7879 17.9138 18.7879H13.5712C13.5697 18.7879 13.5682 18.7879 13.5667 18.7879Z" fill="white" />
</svg>