<svg width="24" height="24" viewBox="0 0 24 24" fill="none" xmlns="http://www.w3.org/2000/svg">
  <path d="M23.0354 6.50902C22.4257 5.26172 21.5294 4.20506 20.3715 3.36844C18.3189 1.88536 15.4241 1.10156 12 1.10156C8.57592 1.10156 5.68111 1.88536 3.62855 3.36839C2.47064 4.20502 1.57434 5.26167 0.964594 6.50897C0.324562 7.81833 0 9.34242 0 11.0391C0 14.7087 1.51336 17.5159 4.38816 19.2045C3.99052 20.6075 3.47447 21.4577 3.46983 21.4653L2.57995 22.896L4.26539 22.8984H4.27031C4.27519 22.8985 4.28006 22.8985 4.28527 22.8985C4.81716 22.8985 7.25742 22.7837 9.24159 20.7933C10.1163 20.915 11.0417 20.9766 12 20.9766C15.4241 20.9766 18.3189 20.1927 20.3715 18.7097C21.5294 17.8731 22.4257 16.8164 23.0354 15.5691C23.6754 14.2597 24 12.7356 24 11.0391C24 9.34242 23.6754 7.81833 23.0354 6.50902ZM19.2733 17.1898C17.5424 18.4404 15.0273 19.1016 12 19.1016C10.9598 19.1016 9.96731 19.0225 9.04992 18.8668L8.52797 18.7781L8.18255 19.1793C7.44033 20.0414 6.58345 20.5017 5.85605 20.7468C6.04495 20.2372 6.23625 19.6256 6.39061 18.9287L6.5497 18.2106L5.89008 17.8852C3.22584 16.571 1.875 14.2676 1.875 11.0391C1.875 8.32486 2.83444 6.25542 4.72669 4.88827C6.45764 3.63759 8.97267 2.97656 12 2.97656C15.0273 2.97656 17.5424 3.63764 19.2733 4.88827C21.1656 6.25537 22.125 8.32481 22.125 11.0391C22.125 13.7533 21.1656 15.8226 19.2733 17.1898Z" fill="#2F2F2F" />
  <path d="M12.9375 15.3516H11.0625V17.2266H12.9375V15.3516Z" fill="#2F2F2F" />
  <path d="M12.3755 4.96847C11.2974 4.85044 10.2241 5.19103 9.42994 5.90297C8.65027 6.60183 8.20312 7.60251 8.20312 8.64844H10.0781C10.0781 8.12709 10.2924 7.64784 10.6815 7.29909C11.0853 6.93703 11.6145 6.77123 12.1712 6.83231C13.0299 6.92644 13.7217 7.61044 13.8162 8.45883C13.8922 9.14198 13.587 9.80789 13.0197 10.1966C11.7648 11.0564 11.0156 12.4578 11.0156 13.9453H12.8906C12.8906 13.0765 13.335 12.2534 14.0795 11.7434C15.2194 10.9623 15.8325 9.62428 15.6796 8.25131C15.4889 6.53798 14.0993 5.15733 12.3755 4.96847Z" fill="#2F2F2F" />
</svg>