<svg width="80" height="80" viewBox="0 0 80 80" fill="none" xmlns="http://www.w3.org/2000/svg">
  <path d="M53.966 6.66699H26.0327C13.8993 6.66699 6.66602 13.9003 6.66602 26.0337V53.9337C6.66602 66.1003 13.8993 73.3337 26.0327 73.3337H53.9327C66.066 73.3337 73.2993 66.1003 73.2993 53.967V26.0337C73.3327 13.9003 66.0993 6.66699 53.966 6.66699ZM53.3327 42.5003H42.4993V53.3337C42.4993 54.7003 41.366 55.8337 39.9993 55.8337C38.6327 55.8337 37.4993 54.7003 37.4993 53.3337V42.5003H26.666C25.2993 42.5003 24.166 41.367 24.166 40.0003C24.166 38.6337 25.2993 37.5003 26.666 37.5003H37.4993V26.667C37.4993 25.3003 38.6327 24.167 39.9993 24.167C41.366 24.167 42.4993 25.3003 42.4993 26.667V37.5003H53.3327C54.6993 37.5003 55.8327 38.6337 55.8327 40.0003C55.8327 41.367 54.6993 42.5003 53.3327 42.5003Z" fill="#2F2F2F" fill-opacity="0.5" />
</svg>