<svg width="24" height="24" viewBox="0 0 24 24" fill="none" xmlns="http://www.w3.org/2000/svg">
  <g clip-path="url(#clip0_288_2025)">
    <path d="M24 17.0085C24 16.3032 23.7248 15.6395 23.2249 15.1397L19.4402 11.355C19.4359 11.3503 19.4319 11.3454 19.4274 11.3408C19.4228 11.3363 19.418 11.3324 19.4133 11.3281L18.1491 10.064C17.966 9.88097 17.6693 9.88097 17.4862 10.064C17.3031 10.247 17.3031 10.5438 17.4862 10.7269L18.4323 11.673L16.867 13.2383C16.7859 13.3194 16.7374 13.4272 16.7305 13.5417C16.6809 14.3664 16.3285 15.147 15.7395 15.7383C15.1468 16.3286 14.3662 16.681 13.5415 16.7307C13.4271 16.7376 13.3192 16.7861 13.2382 16.8671L11.6729 18.4324L7.13048 13.89L8.69513 12.3254C8.77617 12.2444 8.82469 12.1365 8.83158 12.022C8.88127 11.1957 9.23391 10.4154 9.82458 9.82472C10.4152 9.234 11.1956 8.88136 12.0219 8.83172C12.1363 8.82483 12.2443 8.77627 12.3253 8.69526L13.8899 7.13062L14.4833 7.72397C14.5748 7.81547 14.6947 7.86127 14.8147 7.86127C14.9347 7.86127 15.0546 7.81547 15.1462 7.72397C15.3292 7.54092 15.3292 7.24411 15.1462 7.06102L14.2216 6.13645C14.2215 6.13636 14.2215 6.13627 14.2214 6.13617C14.2213 6.13608 14.2212 6.13603 14.2211 6.13594L13.088 5.00273C11.3486 3.26339 9.69755 3.36441 8.49187 3.43819C7.77652 3.48202 7.36003 3.49491 7.11661 3.25148L6.51661 2.65153L6.55322 2.61492C6.64111 2.52698 6.69052 2.40769 6.69052 2.28338C6.69052 2.15902 6.64106 2.03977 6.55308 1.95187L5.09695 0.497063C4.77647 0.176531 4.34873 0 3.89259 0C3.43645 0 3.00867 0.176531 2.68814 0.497063L0.497063 2.68814C0.176531 3.00867 0 3.43641 0 3.89255C0 4.34869 0.176531 4.77642 0.496922 5.09681L1.95187 6.55313C2.03977 6.64111 2.15902 6.69056 2.28338 6.69061H2.28347C2.40778 6.69061 2.52703 6.6412 2.61492 6.55331L2.65153 6.5167L3.25153 7.11666C3.49491 7.36003 3.48202 7.77661 3.43823 8.49187C3.36445 9.6975 3.26339 11.3486 5.00278 13.088L6.13598 14.2212C6.13603 14.2213 6.13613 14.2214 6.13617 14.2215C6.13622 14.2215 6.13631 14.2216 6.13641 14.2216L11.3287 19.414C11.3329 19.4184 11.3366 19.4231 11.3409 19.4274C11.3452 19.4317 11.3498 19.4354 11.3543 19.4395L15.1397 23.2249C15.6395 23.7247 16.3032 24 17.0085 24C18.3183 24 19.408 23.0415 19.6151 21.7888C20.7261 21.6049 21.605 20.7261 21.7888 19.6151C23.0415 19.408 24 18.3183 24 17.0085ZM1.15997 4.43409C1.01653 4.29061 0.9375 4.09833 0.9375 3.89255C0.9375 3.68677 1.01653 3.49448 1.15997 3.35105L3.35105 1.15997C3.49448 1.01653 3.68681 0.9375 3.89259 0.9375C4.09837 0.9375 4.29066 1.01653 4.43428 1.16011L5.55881 2.28361L2.28366 5.55877L1.15997 4.43409ZM4.374 8.54916C4.42252 7.75645 4.46836 7.00762 3.91444 6.45375L3.31448 5.8538L5.8538 3.31448L6.4538 3.91444C7.00772 4.46836 7.75655 4.42247 8.54925 4.374C9.6907 4.30416 10.9844 4.22494 12.4252 5.66573L13.2271 6.46772L11.7841 7.91067C10.7966 8.01211 9.87136 8.45227 9.16177 9.16177C8.45222 9.87136 8.01211 10.7966 7.91072 11.7841L6.46777 13.227L5.66583 12.4251C4.22494 10.9843 4.30411 9.69056 4.374 8.54916ZM21.7738 18.6617C21.6729 18.1552 21.4252 17.6888 21.0517 17.3141C20.8689 17.1308 20.5722 17.1303 20.3888 17.313C20.2054 17.4957 20.2049 17.7925 20.3877 17.976C20.7099 18.2992 20.8874 18.7277 20.8874 19.1824C20.8874 20.1225 20.1225 20.8874 19.1823 20.8874C18.7276 20.8874 18.2992 20.7099 17.9759 20.3877C17.7925 20.205 17.4958 20.2054 17.313 20.3888C17.1302 20.5722 17.1307 20.869 17.314 21.0518C17.6888 21.4253 18.1552 21.673 18.6617 21.7738C18.4751 22.5134 17.8047 23.0625 17.0085 23.0625C16.5536 23.0625 16.1254 22.8848 15.8026 22.562L12.3359 19.0952L13.7795 17.6516C14.765 17.5502 15.69 17.1107 16.4025 16.4011C17.1108 15.69 17.5502 14.765 17.6516 13.7795L19.0952 12.3359L22.562 15.8025C22.8848 16.1253 23.0625 16.5535 23.0625 17.0085C23.0625 17.8047 22.5134 18.4751 21.7738 18.6617Z" fill="white" />
    <path d="M13.7685 9.97752C13.5854 9.79452 13.2887 9.79452 13.1056 9.97752L10.0308 13.0522C9.84779 13.2353 9.84779 13.5321 10.0308 13.7152C10.1224 13.8067 10.2423 13.8525 10.3623 13.8525C10.4822 13.8525 10.6022 13.8067 10.6937 13.7152L13.7685 10.6405C13.9516 10.4574 13.9516 10.1606 13.7685 9.97752Z" fill="white" />
    <path d="M14.6998 11.572L11.6251 14.6467C11.442 14.8298 11.442 15.1266 11.6251 15.3097C11.7166 15.4012 11.8366 15.447 11.9565 15.447C12.0765 15.447 12.1964 15.4012 12.288 15.3097L15.3627 12.235C15.5457 12.0519 15.5457 11.7551 15.3627 11.572C15.1796 11.389 14.8829 11.389 14.6998 11.572Z" fill="white" />
    <path d="M15.9529 9.23599C16.0442 9.32717 16.1632 9.37264 16.2824 9.37264C16.4025 9.37264 16.5227 9.32651 16.6145 9.23468C16.7976 9.05164 16.7963 8.75346 16.6132 8.57042C16.4301 8.38742 16.1334 8.38742 15.9503 8.57042C15.7672 8.75346 15.7672 9.05028 15.9503 9.23337L15.9529 9.23599Z" fill="white" />
  </g>
  <defs>
    <clipPath id="clip0_288_2025">
      <rect width="24" height="24" fill="white" />
    </clipPath>
  </defs>
</svg>