<svg width="18" height="18" viewBox="0 0 18 18" fill="none" xmlns="http://www.w3.org/2000/svg">
  <path class="soc-vk-tile" d="M0 8.64C0 4.566 0 2.532 1.26 1.26C2.538 0 4.572 0 8.64 0H9.36C13.434 0 15.468 0 16.74 1.26C18 2.538 18 4.572 18 8.64V9.36C18 13.434 18 15.468 16.74 16.74C15.462 18 13.428 18 9.36 18H8.64C4.566 18 2.532 18 1.26 16.74C0 15.462 0 13.428 0 9.36V8.64Z" />
  <path class="soc-vk-char" d="M9.57662 12.966C5.47262 12.966 3.13262 10.158 3.03662 5.47805H5.10062C5.16662 8.91005 6.67862 10.362 7.87862 10.662V5.47805H9.81662V8.43605C10.9986 8.31005 12.2466 6.96005 12.6666 5.47205H14.5986C14.4411 6.24231 14.1264 6.9718 13.6742 7.61496C13.2221 8.25812 12.6421 8.80113 11.9706 9.21005C12.72 9.58302 13.3818 10.1106 13.9123 10.758C14.4429 11.4055 14.8302 12.158 15.0486 12.966H12.9186C12.4626 11.544 11.3226 10.44 9.81662 10.29V12.966H9.58262H9.57662Z" />
</svg>