<svg width="18" height="18" viewBox="0 0 18 18" fill="none" xmlns="http://www.w3.org/2000/svg">
  <path d="M0 8.64C0 4.566 0 2.532 1.26 1.26C2.538 0 4.572 0 8.64 0H9.36C13.434 0 15.468 0 16.74 1.26C18 2.538 18 4.572 18 8.64V9.36C18 13.434 18 15.468 16.74 16.74C15.462 18 13.428 18 9.36 18H8.64C4.566 18 2.532 18 1.26 16.74C0 15.462 0 13.428 0 9.36V8.64Z" fill="white" />
  <path d="M9.57662 12.9659C5.47262 12.9659 3.13262 10.1579 3.03662 5.47792H5.10062C5.16662 8.90992 6.67862 10.3619 7.87862 10.6619V5.47792H9.81662V8.43592C10.9986 8.30992 12.2466 6.95992 12.6666 5.47192H14.5986C14.4411 6.24218 14.1264 6.97168 13.6742 7.61484C13.2221 8.258 12.6421 8.801 11.9706 9.20992C12.72 9.5829 13.3818 10.1105 13.9123 10.7579C14.4429 11.4053 14.8302 12.1579 15.0486 12.9659H12.9186C12.4626 11.5439 11.3226 10.4399 9.81662 10.2899V12.9659H9.58262H9.57662Z" fill="#E1251B" />
</svg>