<svg width="24" height="24" viewBox="0 0 24 24" fill="none" xmlns="http://www.w3.org/2000/svg">
  <path d="M21.2844 13.7877H8.86936C8.57728 13.7877 8.34033 14.0246 8.34033 14.3167C8.34033 14.6089 8.57728 14.8457 8.86936 14.8457H21.2844C21.5764 14.8457 21.8134 14.6089 21.8134 14.3167C21.8134 14.0246 21.5764 13.7877 21.2844 13.7877Z" fill="white" />
  <path d="M15.0769 16.8644H8.45774C8.16566 16.8644 7.92871 17.1012 7.92871 17.3934C7.92871 17.6856 8.16566 17.9224 8.45774 17.9224H15.0769C15.3689 17.9224 15.6059 17.6856 15.6059 17.3934C15.6059 17.1012 15.369 16.8644 15.0769 16.8644Z" fill="white" />
  <path d="M20.8823 16.8644H18.156C17.8639 16.8644 17.627 17.1012 17.627 17.3934C17.627 17.6856 17.8639 17.9224 18.156 17.9224H20.8823C21.1744 17.9224 21.4114 17.6856 21.4114 17.3934C21.4114 17.1012 21.1744 16.8644 20.8823 16.8644Z" fill="white" />
  <path d="M14.2634 11.8076H20.8825C21.1746 11.8076 21.4116 11.5708 21.4116 11.2786C21.4116 10.9864 21.1746 10.7496 20.8825 10.7496H14.2634C13.9713 10.7496 13.7344 10.9864 13.7344 11.2786C13.7344 11.5708 13.9712 11.8076 14.2634 11.8076Z" fill="white" />
  <path d="M8.45774 11.8076H11.1842C11.4763 11.8076 11.7132 11.5708 11.7132 11.2786C11.7132 10.9864 11.4763 10.7496 11.1842 10.7496H8.45774C8.16566 10.7496 7.92871 10.9864 7.92871 11.2786C7.92871 11.5708 8.16566 11.8076 8.45774 11.8076Z" fill="white" />
  <path d="M5.32054 14.3166C5.32054 11.3365 4.38822 10.7109 3.60602 10.7109C2.82382 10.7109 1.8916 11.3365 1.8916 14.3166C1.8916 17.2968 2.82382 17.9224 3.60602 17.9224C4.38822 17.9224 5.32054 17.2969 5.32054 14.3166ZM2.94966 14.3166C2.94966 12.4606 3.35221 11.7689 3.60602 11.7689C3.85982 11.7689 4.26248 12.4606 4.26248 14.3166C4.26248 16.1727 3.85982 16.8644 3.60602 16.8644C3.35221 16.8644 2.94966 16.1727 2.94966 14.3166Z" fill="white" />
  <path d="M20.3945 7.63394H17.5489V4.68282C17.5489 3.72368 16.3294 3.00043 14.7122 3.00043C13.095 3.00043 11.8756 3.72368 11.8756 4.68282V7.63383H3.60609C1.58401 7.63394 0 10.5694 0 14.3167C0 18.064 1.58401 20.9995 3.60609 20.9995H20.3945C22.4163 20.9995 24 18.0641 24 14.3167C24 10.5693 22.4163 7.63394 20.3945 7.63394ZM14.7122 4.05849C15.8189 4.05849 16.4909 4.4921 16.4909 4.68282C16.4909 4.87366 15.8189 5.30769 14.7122 5.30769C13.6056 5.30769 12.9336 4.87366 12.9336 4.68282C12.9336 4.4921 13.6056 4.05849 14.7122 4.05849ZM1.05806 14.3167C1.05806 11.0019 2.40099 8.69189 3.60609 8.69189C4.8112 8.69189 6.15412 11.0019 6.15412 14.3167C6.15412 17.6314 4.8112 19.9414 3.60609 19.9414C2.40099 19.9414 1.05806 17.6315 1.05806 14.3167ZM20.3945 19.9414H5.5776C6.56812 18.7625 7.21218 16.7052 7.21218 14.3167C7.21218 11.9281 6.56812 9.87081 5.5776 8.69189H12.4046C12.6967 8.69189 12.9336 8.45505 12.9336 8.16286V6.01271C13.4136 6.23546 14.0269 6.36575 14.7122 6.36575C15.3976 6.36575 16.0109 6.23546 16.4909 6.01271V8.16286C16.4909 8.45505 16.7278 8.69189 17.0199 8.69189H20.3945C21.5994 8.69189 22.9419 11.0019 22.9419 14.3167C22.9419 17.6314 21.5994 19.9414 20.3945 19.9414Z" fill="white" />
</svg>